<svg width="213" height="45" viewBox="0 0 213 45" fill="none" xmlns="http://www.w3.org/2000/svg">
<g clip-path="url(#clip0_1619_12441)">
<path d="M49.2998 8.71096C49.5702 8.4406 49.571 8.0013 49.2915 7.74043C47.5306 6.09704 45.4865 4.78262 43.2557 3.86146C40.8113 2.85219 38.1906 2.33489 35.543 2.33899C32.8955 2.34324 30.2732 2.86881 27.8256 3.88579C25.378 4.90286 23.1531 6.3914 21.2781 8.2664C19.4031 10.1414 17.9146 12.3663 16.8975 14.8139C15.8805 17.2615 15.3549 19.8838 15.3507 22.5313C15.3466 25.1789 15.8639 27.7996 16.8732 30.244C17.8825 32.6883 19.364 34.9086 21.2331 36.7777L28.3722 29.6386C27.4376 28.704 26.6968 27.594 26.1922 26.3717C25.6876 25.1496 25.4289 23.8392 25.431 22.5154C25.4331 21.1917 25.6959 19.8805 26.2044 18.6567C26.7129 17.4329 27.4571 16.3205 28.3947 15.383C29.3322 14.4454 30.4446 13.7012 31.6684 13.1927C32.8922 12.6842 34.2034 12.4214 35.5271 12.4193C36.8509 12.4172 38.1613 12.6759 39.3834 13.1805C40.3919 13.5969 41.3241 14.1741 42.1443 14.8882C42.4326 15.1393 42.8695 15.1413 43.1398 14.871L49.2998 8.71096Z" fill="#002866"/>
<path d="M30.752 27.2591C33.3723 29.8794 37.6272 29.8727 40.2557 27.2441C42.8843 24.6156 42.891 20.3607 40.2707 17.7404C37.6504 15.1202 33.3956 15.1269 30.767 17.7554C28.1385 20.384 28.1318 24.6389 30.752 27.2591Z" fill="#002D74"/>
<path d="M21.2781 8.2666C19.4031 10.1416 17.9146 12.3665 16.8975 14.8141C15.8805 17.2617 15.355 19.884 15.3507 22.5315C15.3466 25.1791 15.8639 27.7998 16.8732 30.2442C17.8825 32.6885 19.3641 34.9088 21.2332 36.7779C23.1023 38.647 25.3225 40.1285 27.7668 41.1378C30.2113 42.1471 32.8319 42.6644 35.4795 42.6603C38.127 42.656 40.7494 42.1305 43.197 41.1135C45.4313 40.185 47.4802 38.8636 49.2466 37.214C49.5261 36.953 49.5253 36.5137 49.2549 36.2434L43.1174 30.1059C42.847 29.8355 42.4102 29.8375 42.122 30.0888C41.2991 30.8062 40.3646 31.3868 39.3541 31.8066C38.1303 32.3151 36.8191 32.5779 35.4954 32.58C34.1716 32.5821 32.8613 32.3234 31.6391 31.8188C30.4168 31.3142 29.3068 30.5734 28.3722 29.6388C27.4376 28.7042 26.6969 27.5942 26.1923 26.3719C25.6876 25.1498 25.4289 23.8394 25.431 22.5156C25.4331 21.1919 25.6959 19.8807 26.2044 18.6569C26.7129 17.4331 27.4572 16.3207 28.3947 15.3832L21.2781 8.2666Z" fill="#001D4B"/>
<path d="M40.2557 27.2443C41.5179 25.982 42.2286 24.2716 42.2315 22.4894C42.2343 20.707 41.529 18.9988 40.2707 17.7405C39.0125 16.4822 37.3043 15.777 35.5219 15.7798C33.7396 15.7826 32.0291 16.4933 30.7669 17.7555L35.5113 22.5L40.2557 27.2443Z" fill="#001D4B"/>
<path d="M76.5 16.8165L72.9101 18.3395C72.3052 18.5962 71.6287 18.2012 71.3847 17.5911C71.31 17.4042 71.2247 17.2254 71.1289 17.0546C70.8355 16.5241 70.4588 16.0728 69.9989 15.7007C69.539 15.3286 69.0077 15.0435 68.405 14.8456C67.8103 14.6477 67.164 14.5487 66.4662 14.5487C65.2054 14.5487 64.1072 14.8614 63.1715 15.4869C62.2358 16.1045 61.5102 17.0071 60.9948 18.1948C60.4794 19.3745 60.2217 20.8076 60.2217 22.4941C60.2217 24.228 60.4794 25.6849 60.9948 26.8646C61.5182 28.0443 62.2477 28.9351 63.1834 29.5368C64.1191 30.1386 65.2015 30.4394 66.4306 30.4394C67.1204 30.4394 67.7588 30.3484 68.3456 30.1663C68.9403 29.9842 69.4676 29.7189 69.9275 29.3705C70.3874 29.0143 70.7681 28.5827 71.0694 28.076C71.1678 27.9147 71.2566 27.7462 71.3358 27.5704C71.6039 26.9753 72.2885 26.6076 72.8814 26.8805L76.3995 28.5C76.2609 28.8702 76.0979 29.2356 75.9104 29.5962C75.3791 30.6255 74.6615 31.5479 73.7575 32.3634C72.8615 33.171 71.791 33.8124 70.546 34.2874C69.309 34.7546 67.9094 34.9881 66.3473 34.9881C64.1746 34.9881 62.2318 34.4972 60.519 33.5154C58.8141 32.5336 57.4661 31.1124 56.4749 29.2518C55.4916 27.3911 55 25.1386 55 22.4941C55 19.8416 55.4996 17.5851 56.4987 15.7245C57.4978 13.8638 58.8538 12.4466 60.5666 11.4727C62.2794 10.4909 64.2063 10 66.3473 10C67.7588 10 69.0672 10.1979 70.2725 10.5938C71.4857 10.9897 72.5602 11.5677 73.4958 12.3278C74.4315 13.08 75.1928 14.0024 75.7796 15.095C76.0712 15.6308 76.3113 16.2046 76.5 16.8165Z" fill="#001D4B"/>
<path d="M81.6147 34.6556C81.0624 34.6556 80.6147 34.2079 80.6147 33.6556V11.3325C80.6147 10.7803 81.0624 10.3325 81.6147 10.3325H96.029C96.5813 10.3325 97.029 10.7803 97.029 11.3325V13.5724C97.029 14.1247 96.5813 14.5724 96.029 14.5724H86.765C86.2127 14.5724 85.765 15.0202 85.765 15.5724V19.3682C85.765 19.9205 86.2127 20.3682 86.765 20.3682H95.1845C95.7368 20.3682 96.1845 20.8159 96.1845 21.3682V23.6081C96.1845 24.1604 95.7368 24.6081 95.1845 24.6081H86.765C86.2127 24.6081 85.765 25.0558 85.765 25.6081V29.4157C85.765 29.968 86.2127 30.4157 86.765 30.4157H96.0766C96.6289 30.4157 97.0766 30.8634 97.0766 31.4157V33.6556C97.0766 34.2079 96.6289 34.6556 96.0766 34.6556H81.6147Z" fill="#001D4B"/>
<path d="M115.244 17.3278C114.73 17.3278 114.319 16.9284 114.141 16.4464C113.938 15.9003 113.596 15.4498 113.113 15.095C112.392 14.5645 111.412 14.2993 110.175 14.2993C109.335 14.2993 108.625 14.4181 108.046 14.6556C107.467 14.8852 107.023 15.2059 106.714 15.6176C106.413 16.0293 106.262 16.4964 106.262 17.019C106.246 17.4545 106.337 17.8345 106.536 18.1591C106.742 18.4838 107.023 18.7648 107.38 19.0024C107.737 19.232 108.149 19.4339 108.617 19.6081C109.085 19.7743 109.585 19.9169 110.116 20.0356L112.304 20.5582C113.367 20.7957 114.342 21.1124 115.23 21.5083C116.119 21.9042 116.888 22.3911 117.538 22.9691C118.188 23.5471 118.692 24.228 119.049 25.0119C119.413 25.7957 119.6 26.6944 119.608 27.7078C119.6 29.1964 119.219 30.4869 118.466 31.5796C117.72 32.6643 116.642 33.5075 115.23 34.1093C113.827 34.7031 112.134 35 110.152 35C108.185 35 106.472 34.6991 105.013 34.0974C103.562 33.4956 102.428 32.6049 101.611 31.4252C100.965 30.4761 100.564 29.3474 100.409 28.0393C100.343 27.482 100.8 27.019 101.362 27.019H104.388C104.914 27.019 105.334 27.4326 105.476 27.9388C105.595 28.3612 105.778 28.7355 106.024 29.0618C106.444 29.6002 107.003 30.0079 107.701 30.285C108.407 30.5542 109.204 30.6888 110.092 30.6888C110.964 30.6888 111.722 30.5622 112.364 30.3088C113.014 30.0554 113.518 29.7031 113.874 29.2518C114.231 28.8005 114.41 28.2819 114.41 27.696C114.41 27.1496 114.247 26.6904 113.922 26.3183C113.605 25.9462 113.137 25.6295 112.519 25.3682C111.908 25.1069 111.159 24.8694 110.27 24.6556L107.618 23.9905C105.564 23.4917 103.943 22.7118 102.753 21.6508C101.564 20.5899 100.973 19.1607 100.981 17.3634C100.973 15.8907 101.366 14.6041 102.158 13.5036C102.959 12.403 104.058 11.5439 105.453 10.9264C106.849 10.3088 108.435 10 110.211 10C112.019 10 113.597 10.3088 114.945 10.9264C116.301 11.5439 117.356 12.403 118.109 13.5036C118.681 14.3401 119.043 15.2772 119.194 16.315C119.275 16.8679 118.817 17.3278 118.258 17.3278H115.244Z" fill="#001D4B"/>
<path d="M125.938 34.9644C125.153 34.9644 124.479 34.6873 123.916 34.133C123.361 33.5709 123.084 32.8979 123.084 32.114C123.084 31.3381 123.361 30.673 123.916 30.1188C124.479 29.5645 125.153 29.2874 125.938 29.2874C126.7 29.2874 127.366 29.5645 127.937 30.1188C128.508 30.673 128.793 31.3381 128.793 32.114C128.793 32.6366 128.658 33.1156 128.389 33.5511C128.127 33.9786 127.782 34.323 127.354 34.5843C126.926 34.8377 126.454 34.9644 125.938 34.9644Z" fill="#001D4B"/>
<path d="M137.472 33.9654C137.338 34.377 136.954 34.6556 136.521 34.6556H133.132C132.445 34.6556 131.962 33.9783 132.187 33.3288L139.905 11.0058C140.044 10.6028 140.423 10.3325 140.85 10.3325H146.062C146.488 10.3325 146.868 10.603 147.007 11.0062L154.714 33.3292C154.938 33.9787 154.456 34.6556 153.769 34.6556H150.379C149.946 34.6556 149.562 34.3767 149.428 33.9648L143.581 15.9813C143.563 15.9273 143.513 15.8907 143.456 15.8907C143.399 15.8907 143.349 15.9272 143.331 15.9812L137.472 33.9654ZM136.902 26.095C136.902 25.5427 137.35 25.095 137.902 25.095H148.938C149.491 25.095 149.938 25.5427 149.938 26.095V28.1093C149.938 28.6615 149.491 29.1093 148.938 29.1093H137.902C137.35 29.1093 136.902 28.6615 136.902 28.1093V26.095Z" fill="#001D4B"/>
<path d="M159.104 34.6556C158.552 34.6556 158.104 34.2079 158.104 33.6556V11.3325C158.104 10.7803 158.552 10.3325 159.104 10.3325H167.715C169.562 10.3325 171.136 10.6849 172.437 11.3895C173.737 12.0863 174.728 13.0562 175.41 14.2993C176.1 15.5344 176.445 16.9596 176.445 18.5748C176.445 20.19 176.096 21.6152 175.398 22.8504C174.701 24.0855 173.69 25.0475 172.365 25.7363C171.049 26.4252 169.455 26.7696 167.584 26.7696H162.458C161.906 26.7696 161.458 26.3219 161.458 25.7696V23.6485C161.458 23.0962 161.906 22.6485 162.458 22.6485H166.751C167.742 22.6485 168.559 22.4782 169.201 22.1378C169.852 21.7894 170.335 21.3104 170.653 20.7007C170.978 20.0831 171.14 19.3745 171.14 18.5748C171.14 17.7672 170.978 17.0625 170.653 16.4608C170.335 15.8511 169.852 15.38 169.201 15.0475C168.551 14.707 167.727 14.5368 166.727 14.5368H164.254C163.702 14.5368 163.254 14.9845 163.254 15.5368V33.6556C163.254 34.2079 162.807 34.6556 162.254 34.6556H159.104Z" fill="#001D4B"/>
<path d="M180.79 34.6556C180.238 34.6556 179.79 34.2079 179.79 33.6556V11.3325C179.79 10.7803 180.238 10.3325 180.79 10.3325H189.401C191.241 10.3325 192.811 10.6611 194.111 11.3183C195.42 11.9675 196.415 12.8899 197.097 14.0855C197.787 15.2732 198.132 16.6706 198.132 18.2779C198.132 19.8931 197.783 21.2827 197.085 22.4466C196.387 23.6025 195.376 24.4893 194.052 25.1069C192.736 25.7245 191.142 26.0333 189.27 26.0333H183.835C183.283 26.0333 182.835 25.5855 182.835 25.0333V22.9002C182.835 22.348 183.283 21.9002 183.835 21.9002H188.438C189.421 21.9002 190.238 21.7656 190.888 21.4964C191.538 21.2272 192.022 20.8234 192.339 20.285C192.664 19.7466 192.827 19.0776 192.827 18.2779C192.827 17.4703 192.664 16.7894 192.339 16.2352C192.022 15.6809 191.534 15.2613 190.876 14.9762C190.226 14.6833 189.405 14.5368 188.414 14.5368H185.941C185.388 14.5368 184.941 14.9845 184.941 15.5368V33.6556C184.941 34.2079 184.493 34.6556 183.941 34.6556H180.79ZM192.353 23.5867C192.718 23.5867 193.055 23.7861 193.23 24.1068L198.191 33.1757C198.555 33.8421 198.073 34.6556 197.313 34.6556H193.914C193.545 34.6556 193.206 34.4526 193.032 34.1274L188.179 25.0585C187.822 24.3924 188.305 23.5867 189.06 23.5867H192.353Z" fill="#001D4B"/>
</g>
<defs>
<clipPath id="clip0_1619_12441">
<rect width="213" height="45" fill="white"/>
</clipPath>
</defs>
</svg>
