<svg width="120" height="46" viewBox="0 0 120 46" fill="none" xmlns="http://www.w3.org/2000/svg">
    <g clip-path="url(#clip0_444_2322)">
        <path d="M49.2998 9.21145C49.5702 8.94109 49.571 8.50179 49.2915 8.24091C47.5306 6.59753 45.4865 5.2831 43.2557 4.36195C40.8113 3.35268 38.1906 2.83538 35.543 2.83947C32.8955 2.84373 30.2732 3.3693 27.8256 4.38628C25.378 5.40335 23.1531 6.89188 21.2781 8.76689C19.4031 10.6419 17.9146 12.8668 16.8975 15.3143C15.8805 17.762 15.3549 20.3843 15.3507 23.0318C15.3466 25.6794 15.8639 28.3001 16.8732 30.7445C17.8825 33.1888 19.364 35.4091 21.2331 37.2781L28.3722 30.1391C27.4376 29.2045 26.6968 28.0945 26.1922 26.8722C25.6876 25.65 25.4289 24.3397 25.431 23.0159C25.4331 21.6922 25.6959 20.381 26.2044 19.1572C26.7129 17.9334 27.4571 16.821 28.3947 15.8835C29.3322 14.9459 30.4446 14.2017 31.6684 13.6932C32.8922 13.1847 34.2034 12.9218 35.5271 12.9198C36.8509 12.9177 38.1613 13.1764 39.3834 13.681C40.3919 14.0974 41.3241 14.6745 42.1443 15.3887C42.4326 15.6398 42.8695 15.6418 43.1398 15.3714L49.2998 9.21145Z" fill="#BCBCC0"/>
        <path d="M30.752 27.7596C33.3723 30.3799 37.6272 30.3732 40.2557 27.7446C42.8843 25.1161 42.891 20.8612 40.2707 18.2409C37.6504 15.6207 33.3956 15.6274 30.767 18.2559C28.1385 20.8845 28.1318 25.1393 30.752 27.7596Z" fill="#BCBCC0"/>
        <path d="M21.2781 8.7666C19.4031 10.6416 17.9146 12.8665 16.8975 15.3141C15.8805 17.7617 15.355 20.384 15.3507 23.0315C15.3466 25.6791 15.8639 28.2998 16.8732 30.7442C17.8825 33.1885 19.3641 35.4088 21.2332 37.2779C23.1023 39.147 25.3225 40.6285 27.7668 41.6378C30.2113 42.6471 32.8319 43.1644 35.4795 43.1603C38.127 43.156 40.7494 42.6305 43.197 41.6135C45.4313 40.685 47.4802 39.3636 49.2466 37.714C49.5261 37.453 49.5253 37.0137 49.2549 36.7434L43.1174 30.6059C42.847 30.3355 42.4102 30.3375 42.122 30.5888C41.2991 31.3062 40.3646 31.8868 39.3541 32.3066C38.1303 32.8151 36.8191 33.0779 35.4954 33.08C34.1716 33.0821 32.8613 32.8234 31.6391 32.3188C30.4168 31.8142 29.3068 31.0734 28.3722 30.1388C27.4376 29.2042 26.6969 28.0942 26.1923 26.8719C25.6876 25.6498 25.4289 24.3394 25.431 23.0156C25.4331 21.6919 25.6959 20.3807 26.2044 19.1569C26.7129 17.9331 27.4572 16.8207 28.3947 15.8832L21.2781 8.7666Z" fill="white"/>
        <path d="M40.2557 27.7443C41.5179 26.482 42.2286 24.7716 42.2315 22.9894C42.2343 21.207 41.529 19.4988 40.2707 18.2405C39.0125 16.9822 37.3043 16.277 35.5219 16.2798C33.7396 16.2826 32.0291 16.9933 30.7669 18.2555L35.5113 23L40.2557 27.7443Z" fill="white"/>
        <path d="M74.3644 29.1034C74.6258 29.1034 74.8514 29.1975 75.0415 29.3858L76.9301 31.2966C75.8848 32.504 74.5961 33.4289 73.0638 34.0714C71.5434 34.7138 69.7142 35.0351 67.5762 35.0351C65.6638 35.0351 63.9415 34.7305 62.4092 34.1212C60.8888 33.512 59.5882 32.6646 58.5073 31.5791C57.4264 30.4935 56.595 29.1975 56.0129 27.6911C55.4428 26.1846 55.1577 24.5397 55.1577 22.7563C55.1577 20.9508 55.4784 19.3003 56.1198 17.8049C56.7612 16.2985 57.664 15.0025 58.828 13.9169C59.9921 12.8314 61.3818 11.9895 62.9972 11.3914C64.6245 10.7822 66.4181 10.4775 68.3779 10.4775C70.2903 10.4775 71.9591 10.7655 73.3845 11.3415C74.8217 11.9065 76.0511 12.6597 77.0726 13.6012L75.4691 15.6782C75.3741 15.8111 75.2493 15.9274 75.0949 16.0271C74.9524 16.1268 74.7505 16.1766 74.4892 16.1766C74.216 16.1766 73.9368 16.0769 73.6518 15.8775C73.3667 15.6782 73.0044 15.4622 72.5649 15.2295C72.1254 14.9969 71.5672 14.7809 70.8901 14.5815C70.225 14.3822 69.3757 14.2825 68.3423 14.2825C67.1307 14.2825 66.0142 14.4818 64.9927 14.8806C63.9831 15.2683 63.11 15.8277 62.3736 16.5588C61.649 17.2898 61.0789 18.1815 60.6632 19.2338C60.2593 20.2751 60.0574 21.4492 60.0574 22.7563C60.0574 24.1077 60.2593 25.3095 60.6632 26.3618C61.0789 27.4142 61.6372 28.3003 62.338 29.0203C63.0388 29.7403 63.8643 30.2942 64.8145 30.6818C65.7648 31.0585 66.7863 31.2468 67.879 31.2468C68.5323 31.2468 69.1203 31.2135 69.6429 31.1471C70.1774 31.0806 70.6644 30.9754 71.1039 30.8314C71.5553 30.6874 71.977 30.5046 72.3689 30.2831C72.7728 30.0505 73.1707 29.768 73.5627 29.4357C73.6814 29.336 73.8062 29.2585 73.9368 29.2031C74.0675 29.1366 74.21 29.1034 74.3644 29.1034Z" fill="white"/>
        <path d="M96.8102 10.7434V14.2991H85.3895V20.9618H94.3871V24.4012H85.3895V31.1969H96.8102V34.7692H80.5611V10.7434H96.8102Z" fill="white"/>
        <path d="M114.761 15.1132C114.631 15.3569 114.476 15.5286 114.298 15.6283C114.132 15.728 113.93 15.7778 113.692 15.7778C113.455 15.7778 113.188 15.6948 112.891 15.5286C112.594 15.3514 112.243 15.1575 111.839 14.9471C111.436 14.7366 110.96 14.5483 110.414 14.3822C109.88 14.2049 109.244 14.1163 108.508 14.1163C107.842 14.1163 107.26 14.1938 106.762 14.3489C106.275 14.4929 105.859 14.6978 105.514 14.9637C105.182 15.2295 104.932 15.5508 104.766 15.9274C104.6 16.2929 104.517 16.6972 104.517 17.1403C104.517 17.7052 104.683 18.176 105.016 18.5526C105.36 18.9292 105.811 19.2505 106.37 19.5163C106.928 19.7822 107.563 20.0203 108.276 20.2308C108.989 20.4412 109.713 20.6683 110.45 20.912C111.198 21.1446 111.929 21.4215 112.641 21.7428C113.354 22.0529 113.989 22.4517 114.548 22.9391C115.106 23.4154 115.551 24.0025 115.884 24.7003C116.228 25.3982 116.401 26.2455 116.401 27.2425C116.401 28.328 116.199 29.3471 115.795 30.2997C115.403 31.2412 114.821 32.0665 114.049 32.7754C113.289 33.4732 112.356 34.0271 111.251 34.4369C110.147 34.8357 108.882 35.0351 107.456 35.0351C106.637 35.0351 105.829 34.9575 105.033 34.8025C104.238 34.6585 103.471 34.448 102.735 34.1711C102.01 33.8942 101.327 33.5618 100.686 33.1742C100.056 32.7865 99.4922 32.3545 98.9934 31.8782L100.383 29.7348C100.514 29.5797 100.668 29.4523 100.846 29.3526C101.036 29.2418 101.244 29.1865 101.47 29.1865C101.767 29.1865 102.088 29.3028 102.432 29.5354C102.777 29.7569 103.18 30.0062 103.644 30.2831C104.119 30.56 104.671 30.8148 105.301 31.0474C105.942 31.2689 106.708 31.3797 107.599 31.3797C108.965 31.3797 110.022 31.0806 110.77 30.4825C111.519 29.8732 111.893 29.0037 111.893 27.8738C111.893 27.2425 111.721 26.7274 111.376 26.3286C111.044 25.9298 110.598 25.5975 110.04 25.3317C109.482 25.0548 108.846 24.8222 108.133 24.6338C107.421 24.4455 106.696 24.2406 105.96 24.0191C105.223 23.7975 104.499 23.5317 103.786 23.2215C103.073 22.9114 102.438 22.5071 101.88 22.0086C101.321 21.5102 100.87 20.8898 100.526 20.1477C100.193 19.3945 100.027 18.4695 100.027 17.3729C100.027 16.4978 100.211 15.6449 100.579 14.8142C100.959 13.9834 101.506 13.2468 102.218 12.6043C102.943 11.9618 103.828 11.4468 104.873 11.0591C105.918 10.6714 107.112 10.4775 108.454 10.4775C109.975 10.4775 111.376 10.6991 112.659 11.1422C113.942 11.5852 115.035 12.2055 115.937 13.0031L114.761 15.1132Z" fill="white"/>
    </g>
    <defs>
        <clipPath id="clip0_444_2322">
            <rect width="120" height="45" fill="white" transform="translate(0 0.5)"/>
        </clipPath>
    </defs>
</svg>
