<svg width="51" height="60" viewBox="0 0 51 60" fill="none" xmlns="http://www.w3.org/2000/svg">
    <path d="M49.9917 10.0835C50.3822 9.69295 50.3833 9.05841 49.9796 8.68159C47.4361 6.30781 44.4835 4.4092 41.2612 3.07864C37.7304 1.6208 33.945 0.873598 30.1207 0.879512C26.2965 0.885661 22.5087 1.64481 18.9733 3.11379C15.4379 4.58289 12.2242 6.73299 9.51582 9.44133C6.80749 12.1497 4.65738 15.3634 3.18828 18.8988C1.7193 22.4342 0.960156 26.222 0.954006 30.0463C0.948092 33.8705 1.6953 37.6559 3.15313 41.1867C4.61108 44.7175 6.75106 47.9245 9.45087 50.6243L19.7628 40.3123C18.4129 38.9623 17.3429 37.3589 16.614 35.5935C15.8851 33.8281 15.5114 31.9354 15.5144 30.0233C15.5174 28.1112 15.8971 26.2173 16.6316 24.4496C17.366 22.6818 18.4411 21.0751 19.7953 19.7208C21.1495 18.3666 22.7563 17.2915 24.5241 16.5571C26.2918 15.8226 28.1857 15.4429 30.0978 15.4399C32.0098 15.4369 33.9026 15.8106 35.668 16.5395C37.1247 17.1409 38.4711 17.9746 39.6558 19.0062C40.0724 19.3688 40.7034 19.3718 41.0939 18.9812L49.9917 10.0835Z" fill="#002D74"/>
    <path d="M23.2004 36.8746C26.9853 40.6595 33.1312 40.6498 36.928 36.853C40.7248 33.0562 40.7345 26.9103 36.9496 23.1254C33.1648 19.3406 27.0189 19.3503 23.2221 23.1471C19.4253 26.9439 19.4156 33.0898 23.2004 36.8746Z" fill="#002D74"/>
    <path d="M9.51581 9.44141C6.80747 12.1497 4.65736 15.3635 3.18827 18.8988C1.71929 22.4343 0.96014 26.2221 0.953991 30.0463C0.948077 33.8706 1.69528 37.656 3.15311 41.1868C4.61107 44.7175 6.75104 47.9245 9.45085 50.6243C12.1507 53.3241 15.3577 55.4641 18.8884 56.9221C22.4192 58.3799 26.2046 59.1271 30.0289 59.1212C33.8531 59.1151 37.6409 58.3559 41.1763 56.8869C44.4038 55.5458 47.3632 53.6371 49.9147 51.2543C50.3184 50.8773 50.3172 50.2428 49.9267 49.8523L41.0614 40.987C40.6709 40.5965 40.0399 40.5994 39.6236 40.9623C38.435 41.9986 37.0851 42.8372 35.6255 43.4436C33.8578 44.1782 31.9639 44.5578 30.0518 44.5608C28.1398 44.5638 26.247 44.1902 24.4816 43.4612C22.7162 42.7323 21.1128 41.6623 19.7628 40.3124C18.4129 38.9624 17.3429 37.359 16.614 35.5935C15.885 33.8282 15.5114 31.9354 15.5144 30.0234C15.5174 28.1113 15.897 26.2173 16.6316 24.4497C17.366 22.6819 18.4411 21.0751 19.7953 19.7209L9.51581 9.44141Z" fill="#001D4B"/>
</svg>
