<svg width="617" height="460" viewBox="0 0 617 460" fill="none" xmlns="http://www.w3.org/2000/svg">
    <path d="M616.354 403.589H3.8147e-06V403.897H616.354V403.589Z" fill="#EBEBF0"/>
    <path d="M549.603 414.252H507.198V414.56H549.603V414.252Z" fill="#EBEBF0"/>
    <path d="M320.073 414.252H307.401V414.56H320.073V414.252Z" fill="#EBEBF0"/>
    <path d="M494.316 420.316H470.451V420.625H494.316V420.316Z" fill="#EBEBF0"/>
    <path d="M142.538 414.979H89.2974V415.288H142.538V414.979Z" fill="#EBEBF0"/>
    <path d="M158.613 410.591H136.991V410.899H158.613V410.591Z" fill="#EBEBF0"/>
    <path d="M393.653 423.645H278.173V423.953H393.653V423.645Z" fill="#EBEBF0"/>
    <path d="M292.152 348.61H54.1282C52.2636 348.607 50.4764 347.864 49.159 346.544C47.8417 345.224 47.1018 343.436 47.1018 341.571V6.97713C47.118 5.12317 47.8651 3.35048 49.1807 2.0441C50.4963 0.737725 52.2742 0.00317594 54.1282 0H292.152C294.019 0 295.809 0.741582 297.129 2.06161C298.449 3.38163 299.191 5.17197 299.191 7.03876V341.571C299.191 343.438 298.449 345.228 297.129 346.548C295.809 347.868 294.019 348.61 292.152 348.61ZM54.1282 0.246543C52.3453 0.249808 50.6365 0.96036 49.377 2.22224C48.1174 3.48411 47.41 5.1942 47.41 6.97713V341.571C47.41 343.354 48.1174 345.064 49.377 346.326C50.6365 347.588 52.3453 348.299 54.1282 348.302H292.152C293.936 348.299 295.646 347.588 296.908 346.327C298.169 345.065 298.879 343.355 298.883 341.571V6.97713C298.879 5.19307 298.169 3.48301 296.908 2.22148C295.646 0.95996 293.936 0.249801 292.152 0.246543H54.1282Z" fill="#EBEBF0"/>
    <path d="M558.799 348.61H320.763C318.897 348.607 317.109 347.864 315.79 346.545C314.47 345.225 313.728 343.437 313.724 341.571V6.97713C313.744 5.12204 314.494 3.34936 315.811 2.04333C317.129 0.737294 318.908 0.0031413 320.763 0H558.799C560.651 0.00641563 562.426 0.742398 563.739 2.04843C565.052 3.35445 565.797 5.1253 565.813 6.97713V341.571C565.813 343.434 565.075 345.22 563.76 346.54C562.446 347.859 560.662 348.603 558.799 348.61ZM320.763 0.246543C318.979 0.249801 317.269 0.95996 316.007 2.22148C314.746 3.48301 314.036 5.19307 314.032 6.97713V341.571C314.036 343.355 314.746 345.065 316.007 346.327C317.269 347.588 318.979 348.299 320.763 348.302H558.799C560.583 348.299 562.293 347.588 563.555 346.327C564.816 345.065 565.526 343.355 565.53 341.571V6.97713C565.526 5.19307 564.816 3.48301 563.555 2.22148C562.293 0.95996 560.583 0.249801 558.799 0.246543H320.763Z" fill="#EBEBF0"/>
    <path d="M251.818 403.589H356.376C346.132 364.956 352.271 323.352 374.768 284.719H270.21C247.7 323.352 241.611 364.956 251.818 403.589Z" fill="white"/>
    <path d="M248.255 340.228H353.948C357.577 320.662 364.616 301.886 374.743 284.756H269.063C258.936 301.887 251.893 320.662 248.255 340.228Z" fill="#EBEBF0"/>
    <path d="M92.3298 325.608L514.952 325.608C521.896 325.608 527.525 319.979 527.525 313.035V52.7607C527.525 45.8164 521.896 40.1871 514.952 40.1871L92.3298 40.1871C85.3856 40.1871 79.7562 45.8164 79.7562 52.7607L79.7562 313.035C79.7562 319.979 85.3856 325.608 92.3298 325.608Z" fill="#EBEBF0"/>
    <path d="M98.2592 325.608L520.881 325.608C527.825 325.608 533.455 319.979 533.455 313.035V52.7607C533.455 45.8164 527.825 40.1871 520.881 40.1871L98.2592 40.1871C91.315 40.1871 85.6855 45.8164 85.6855 52.7607L85.6855 313.035C85.6855 319.979 91.315 325.608 98.2592 325.608Z" fill="#D8D8DC"/>
    <path d="M85.6855 284.73L533.455 284.73V54.6454L85.6855 54.6454V284.73Z" fill="white"/>
    <path d="M309.582 314.255C314.314 314.255 318.15 310.419 318.15 305.687C318.15 300.956 314.314 297.12 309.582 297.12C304.851 297.12 301.015 300.956 301.015 305.687C301.015 310.419 304.851 314.255 309.582 314.255Z" fill="#EBEBF0"/>
    <path d="M271.196 395.317H390.559C392.753 395.317 394.857 396.189 396.408 397.74C397.959 399.291 398.831 401.395 398.831 403.589H262.949C262.949 401.399 263.817 399.299 265.363 397.749C266.909 396.198 269.006 395.324 271.196 395.317Z" fill="#D8D8DC"/>
    <path d="M242.844 395.318H264.219C266.41 395.321 268.511 396.194 270.06 397.745C271.608 399.295 272.478 401.397 272.478 403.589H234.51C234.512 402.498 234.729 401.418 235.149 400.411C235.569 399.404 236.184 398.49 236.959 397.722C237.733 396.953 238.651 396.345 239.661 395.933C240.671 395.52 241.753 395.311 242.844 395.318Z" fill="#EBEBF0"/>
    <path d="M350.706 21.7578C350.702 19.9116 349.967 18.142 348.662 16.8365C347.357 15.5311 345.587 14.7962 343.741 14.793H126.784C124.939 14.7995 123.171 15.5353 121.866 16.8401C120.562 18.1448 119.826 19.9126 119.819 21.7578V44.1684H350.706V21.7578Z" fill="white"/>
    <path d="M294.408 34.75C297.315 34.75 299.671 32.3934 299.671 29.4863C299.671 26.5793 297.315 24.2227 294.408 24.2227C291.501 24.2227 289.144 26.5793 289.144 29.4863C289.144 32.3934 291.501 34.75 294.408 34.75Z" fill="#EBEBF0"/>
    <path d="M313.059 34.75C315.966 34.75 318.322 32.3934 318.322 29.4863C318.322 26.5793 315.966 24.2227 313.059 24.2227C310.152 24.2227 307.795 26.5793 307.795 29.4863C307.795 32.3934 310.152 34.75 313.059 34.75Z" fill="#EBEBF0"/>
    <path d="M331.722 34.75C334.629 34.75 336.986 32.3934 336.986 29.4863C336.986 26.5793 334.629 24.2227 331.722 24.2227C328.815 24.2227 326.458 26.5793 326.458 29.4863C326.458 32.3934 328.815 34.75 331.722 34.75Z" fill="#EBEBF0"/>
    <path d="M126.846 195.113H343.802C345.646 195.11 347.414 194.377 348.719 193.074C350.024 191.771 350.761 190.005 350.767 188.161V44.168H119.881V188.161C119.891 190.004 120.628 191.768 121.932 193.07C123.237 194.372 125.003 195.107 126.846 195.113Z" fill="#EBEBF0"/>
    <path d="M366.238 45.056C366.231 43.2141 365.497 41.4495 364.194 40.147C362.892 38.8446 361.127 38.11 359.285 38.1035H142.39C140.546 38.1068 138.778 38.8399 137.473 40.1427C136.168 41.4455 135.432 43.2119 135.425 45.056V67.479H366.238V45.056Z" fill="#D8D8DC"/>
    <path d="M309.94 58.0488C312.847 58.0488 315.204 55.6922 315.204 52.7851C315.204 49.8781 312.847 47.5215 309.94 47.5215C307.033 47.5215 304.676 49.8781 304.676 52.7851C304.676 55.6922 307.033 58.0488 309.94 58.0488Z" fill="#EBEBF0"/>
    <path d="M328.603 58.0488C331.51 58.0488 333.867 55.6922 333.867 52.7851C333.867 49.8781 331.51 47.5215 328.603 47.5215C325.696 47.5215 323.339 49.8781 323.339 52.7851C323.339 55.6922 325.696 58.0488 328.603 58.0488Z" fill="#EBEBF0"/>
    <path d="M352.555 52.7851C352.555 53.8262 352.246 54.8439 351.668 55.7095C351.089 56.5751 350.267 57.2497 349.305 57.6481C348.343 58.0465 347.285 58.1508 346.264 57.9477C345.243 57.7446 344.305 57.2433 343.569 56.5071C342.833 55.771 342.332 54.8331 342.128 53.812C341.925 52.791 342.03 51.7326 342.428 50.7708C342.826 49.809 343.501 48.9869 344.367 48.4086C345.232 47.8302 346.25 47.5215 347.291 47.5215C348.687 47.5215 350.026 48.076 351.013 49.0632C352 50.0503 352.555 51.3891 352.555 52.7851Z" fill="#EBEBF0"/>
    <path d="M142.39 218.424H359.347C361.191 218.417 362.957 217.681 364.26 216.376C365.563 215.071 366.296 213.303 366.299 211.459V67.4785H135.425V211.459C135.429 213.305 136.163 215.075 137.469 216.38C138.774 217.686 140.544 218.42 142.39 218.424Z" fill="white"/>
    <path d="M381.782 68.3662C381.779 66.52 381.044 64.7504 379.739 63.4449C378.433 62.1395 376.664 61.4046 374.817 61.4014H157.922C156.076 61.4046 154.306 62.1395 153.001 63.4449C151.696 64.7504 150.961 66.52 150.957 68.3662V90.7768H381.782V68.3662Z" fill="white"/>
    <path d="M325.484 81.3594C328.391 81.3594 330.748 79.0027 330.748 76.0957C330.748 73.1887 328.391 70.832 325.484 70.832C322.577 70.832 320.221 73.1887 320.221 76.0957C320.221 79.0027 322.577 81.3594 325.484 81.3594Z" fill="#EBEBF0"/>
    <path d="M344.135 81.3594C347.042 81.3594 349.399 79.0027 349.399 76.0957C349.399 73.1887 347.042 70.832 344.135 70.832C341.228 70.832 338.872 73.1887 338.872 76.0957C338.872 79.0027 341.228 81.3594 344.135 81.3594Z" fill="#EBEBF0"/>
    <path d="M368.062 76.0957C368.065 77.1397 367.757 78.161 367.179 79.0302C366.601 79.8995 365.778 80.5776 364.814 80.9789C363.85 81.3801 362.789 81.4863 361.764 81.2841C360.74 81.082 359.799 80.5804 359.06 79.8431C358.321 79.1057 357.817 78.1656 357.612 77.1419C357.408 76.1181 357.512 75.0566 357.911 74.0918C358.31 73.1271 358.986 72.3023 359.854 71.7221C360.722 71.1418 361.742 70.832 362.786 70.832C364.183 70.832 365.523 71.3862 366.512 72.373C367.502 73.3597 368.059 74.6986 368.062 76.0957Z" fill="#EBEBF0"/>
    <path d="M157.922 241.735H374.879C376.724 241.728 378.492 240.992 379.797 239.688C381.101 238.383 381.837 236.615 381.844 234.77V90.7773H150.957V234.77C150.964 236.615 151.7 238.383 153.005 239.688C154.309 240.992 156.077 241.728 157.922 241.735Z" fill="#EBEBF0"/>
    <path opacity="0.5" d="M440.077 152.116H360.58V270.826H479.302V152.116H440.077ZM400.815 153.041H439.14V191.378H400.778L400.815 153.041ZM439.14 230.64H400.778V192.303H439.103L439.14 230.64ZM361.553 153.041H399.878V191.378H361.516L361.553 153.041ZM361.553 192.303H399.878V230.64H361.516L361.553 192.303ZM399.841 269.963H361.516V231.626H399.841V269.963ZM439.103 269.963H400.778V231.626H439.103V269.963ZM478.365 269.963H440.077V231.626H478.402L478.365 269.963ZM478.365 230.701H440.077V192.303H478.402L478.365 230.701ZM440.077 191.378V153.041H478.402V191.378H440.077Z" fill="#EBEBF0"/>
    <path d="M408.002 133.836L546.571 133.836V70.8199L408.002 70.8199V133.836Z" fill="#D8D8DC"/>
    <path d="M546.571 95.387V133.848H408.027V86.0801C431.017 86.0801 443.282 107.159 471.721 107.159C500.159 107.159 508.727 95.387 546.571 95.387Z" fill="white"/>
    <path d="M546.571 113.766C515.432 113.766 505.152 99.9971 487.66 99.9971C470.167 99.9971 461.575 114.457 439.781 114.457C417.075 114.457 408.002 103.091 408.002 103.091V133.909H546.571V113.766Z" fill="#EBEBF0"/>
    <path d="M308.177 459.258C440.179 459.258 547.187 453.011 547.187 445.304C547.187 437.597 440.179 431.35 308.177 431.35C176.176 431.35 69.1673 437.597 69.1673 445.304C69.1673 453.011 176.176 459.258 308.177 459.258Z" fill="#D8D8DC"/>
    <path d="M249.007 192.944C243.845 174.472 245.899 154.728 254.752 137.714C263.606 120.699 278.598 107.688 296.688 101.316L301.336 116.035C287.167 121.192 275.449 131.477 268.498 144.857C261.548 158.238 259.871 173.739 263.8 188.296L249.007 192.944Z" fill="#002D74"/>
    <path d="M286.716 239.442C280.905 236.441 275.517 232.686 270.69 228.273C261.534 219.879 254.586 209.358 250.462 197.64L265.18 192.993C268.62 202.526 274.415 211.035 282.026 217.727C289.637 224.42 298.816 229.079 308.711 231.272C318.605 233.466 328.894 233.121 338.62 230.271C348.346 227.422 357.193 222.159 364.339 214.972L375.717 225.401C364.337 236.957 349.55 244.557 333.53 247.084C317.509 249.611 301.101 246.933 286.716 239.442Z" fill="#002D74"/>
    <path opacity="0.7" d="M286.716 239.442C280.905 236.441 275.517 232.686 270.69 228.273C261.534 219.879 254.586 209.358 250.462 197.64L265.18 192.993C268.62 202.526 274.415 211.035 282.026 217.727C289.637 224.42 298.816 229.079 308.711 231.272C318.605 233.466 328.894 233.121 338.62 230.271C348.346 227.422 357.193 222.159 364.339 214.972L375.717 225.401C364.337 236.957 349.55 244.557 333.53 247.084C317.509 249.611 301.101 246.933 286.716 239.442Z" fill="white"/>
    <path d="M367.729 211.336C375.989 201.546 380.904 189.373 381.76 176.593C382.616 163.813 379.366 151.094 372.486 140.29C365.605 129.486 355.453 121.163 343.511 116.534C331.568 111.905 318.458 111.212 306.094 114.556L301.447 99.7633C320.336 94.4731 340.542 96.7344 357.794 106.069C375.047 115.404 387.994 131.081 393.9 149.787C397.739 162.039 398.403 175.066 395.829 187.646C393.254 200.225 387.526 211.944 379.181 221.703L367.729 211.336Z" fill="#002D74"/>
    <path opacity="0.3" d="M367.729 211.336C375.989 201.546 380.904 189.373 381.76 176.593C382.616 163.813 379.366 151.094 372.486 140.29C365.605 129.486 355.453 121.163 343.511 116.534C331.568 111.905 318.458 111.212 306.094 114.556L301.447 99.7633C320.336 94.4731 340.542 96.7344 357.794 106.069C375.047 115.404 387.994 131.081 393.9 149.787C397.739 162.039 398.403 175.066 395.829 187.646C393.254 200.225 387.526 211.944 379.181 221.703L367.729 211.336Z" fill="#545456"/>
    <path d="M335.851 154.335C334.11 152.593 332.042 151.21 329.765 150.267C327.489 149.323 325.05 148.837 322.586 148.837C320.122 148.836 317.682 149.321 315.405 150.263C313.129 151.206 311.06 152.587 309.317 154.329C307.575 156.071 306.192 158.139 305.249 160.415C304.305 162.691 303.819 165.131 303.819 167.595C303.818 170.059 304.303 172.499 305.245 174.775C306.188 177.052 307.569 179.121 309.311 180.863L322.575 194.127L335.851 180.863C339.368 177.345 341.344 172.574 341.344 167.599C341.344 162.625 339.368 157.854 335.851 154.335Z" fill="#002D74"/>
    <path opacity="0.3" d="M335.851 154.335C334.11 152.593 332.042 151.21 329.765 150.267C327.489 149.323 325.05 148.837 322.586 148.837C320.122 148.836 317.682 149.321 315.405 150.263C313.129 151.206 311.06 152.587 309.317 154.329C307.575 156.071 306.192 158.139 305.249 160.415C304.305 162.691 303.819 165.131 303.819 167.595C303.818 170.059 304.303 172.499 305.245 174.775C306.188 177.052 307.569 179.121 309.311 180.863L322.575 194.127L335.851 180.863C339.368 177.345 341.344 172.574 341.344 167.599C341.344 162.625 339.368 157.854 335.851 154.335Z" fill="white"/>
    <path d="M323.327 198.06H321.848V203.977H323.327V198.06Z" fill="#002D74"/>
    <path opacity="0.3" d="M323.327 198.06H321.848V203.977H323.327V198.06Z" fill="#545456"/>
    <path d="M323.327 208.55H321.848V214.467H323.327V208.55Z" fill="#002D74"/>
    <path opacity="0.3" d="M323.327 208.55H321.848V214.467H323.327V208.55Z" fill="#545456"/>
    <path d="M271.381 256.429H221.173V438.229H271.381V256.429Z" fill="#002D74"/>
    <path opacity="0.7" d="M271.381 256.429H221.173V438.229H271.381V256.429Z" fill="white"/>
    <path d="M295.48 256.429H271.381V438.229H295.48V256.429Z" fill="#002D74"/>
    <path opacity="0.5" d="M295.48 256.429H271.381V438.229H295.48V256.429Z" fill="white"/>
    <path d="M399.878 369.197H349.67V438.229H399.878V369.197Z" fill="#002D74"/>
    <path opacity="0.5" d="M399.878 369.197H349.67V438.229H399.878V369.197Z" fill="#545456"/>
    <path d="M423.978 369.197H399.878V438.229H423.978V369.197Z" fill="#002D74"/>
    <path opacity="0.6" d="M423.978 369.197H399.878V438.229H423.978V369.197Z" fill="#545456"/>
    <path d="M335.63 217.993H285.421V438.229H335.63V217.993Z" fill="#002D74"/>
    <path opacity="0.7" d="M335.63 217.993H285.421V438.229H335.63V217.993Z" fill="#545456"/>
    <path d="M359.729 217.993H335.63V438.229H359.729V217.993Z" fill="#002D74"/>
    <path opacity="0.8" d="M359.729 217.993H335.63V438.229H359.729V217.993Z" fill="#545456"/>
    <path d="M434.197 167.192C432.471 180.826 430.302 194.496 428.366 208.019C428.126 209.995 427.768 211.954 427.294 213.887C426.739 215.867 426.031 217.8 425.173 219.668C423.538 223.184 421.494 226.494 419.084 229.53C416.787 232.448 414.256 235.173 411.515 237.678C410.184 238.911 408.766 240.144 407.336 241.216C405.906 242.289 404.489 243.398 402.849 244.47L398.473 239.01C399.496 237.875 400.655 236.544 401.703 235.311C402.751 234.079 403.786 232.747 404.797 231.441C406.773 228.886 408.581 226.205 410.208 223.416C411.777 220.799 413.07 218.027 414.067 215.144C414.525 213.81 414.876 212.442 415.115 211.052C415.33 209.593 415.47 208.124 415.534 206.651C415.99 199.649 416.68 192.721 417.444 185.806C418.209 178.89 419.121 172.061 420.206 165.183L434.197 167.192Z" fill="#FEF3A6"/>
    <path d="M437.266 162.508C440.41 170.853 424.495 195.421 424.495 195.421L405.845 185.301C408.651 177.655 412.276 170.336 416.655 163.469C423.213 153.632 433.827 153.349 437.266 162.508Z" fill="#002D74"/>
    <path opacity="0.2" d="M437.266 162.508C440.41 170.853 424.495 195.421 424.495 195.421L405.845 185.301C408.651 177.655 412.276 170.336 416.655 163.469C423.213 153.632 433.827 153.349 437.266 162.508Z" fill="#545456"/>
    <path d="M426.197 156.122C426.197 156.122 415.189 184.289 425.642 236.729H475.53C475.875 229.073 471.055 191.722 478.439 155.653C472.927 154.584 467.352 153.876 461.748 153.533C454.686 153.126 447.607 153.126 440.545 153.533C435.702 154.021 430.905 154.886 426.197 156.122Z" fill="#002D74"/>
    <path opacity="0.2" d="M426.197 156.122C426.197 156.122 415.189 184.289 425.642 236.729H475.53C475.875 229.073 471.055 191.722 478.439 155.653C472.927 154.584 467.352 153.876 461.748 153.533C454.686 153.126 447.607 153.126 440.545 153.533C435.702 154.021 430.905 154.886 426.197 156.122Z" fill="#545456"/>
    <path d="M432.816 433.814H423.497L421.007 412.217H430.339L432.816 433.814Z" fill="#FEF3A6"/>
    <path d="M498.446 433.814H489.126L481.853 412.217H491.185L498.446 433.814Z" fill="#FEF3A6"/>
    <path d="M487.881 432.681H499.247C499.432 432.68 499.612 432.743 499.756 432.86C499.9 432.977 499.999 433.14 500.036 433.322L501.885 441.618C501.925 441.819 501.92 442.027 501.87 442.227C501.82 442.426 501.726 442.612 501.594 442.77C501.463 442.928 501.299 443.055 501.112 443.142C500.926 443.228 500.722 443.272 500.517 443.27C496.819 443.208 494.193 442.998 489.583 442.998C486.747 442.998 480.954 443.294 476.997 443.294C473.04 443.294 472.571 439.424 474.174 439.066C481.36 437.501 484.035 435.368 486.365 433.26C486.781 432.885 487.322 432.679 487.881 432.681Z" fill="#4C6C9E"/>
    <path d="M423.559 432.681H433.741C433.927 432.681 434.108 432.745 434.253 432.862C434.399 432.978 434.5 433.14 434.542 433.322L436.379 441.618C436.424 441.818 436.422 442.025 436.375 442.225C436.328 442.424 436.237 442.61 436.107 442.769C435.978 442.928 435.814 443.056 435.629 443.143C435.443 443.229 435.24 443.273 435.035 443.27C431.337 443.208 426.049 442.998 421.475 442.998C416.076 442.998 411.416 443.294 405.08 443.294C401.247 443.294 400.15 439.424 401.789 439.066C409.087 437.476 415.041 437.303 421.352 433.408C422.008 432.969 422.771 432.717 423.559 432.681Z" fill="#4C6C9E"/>
    <path d="M401.863 235.447L394.048 241.981L404.316 248.009C405.83 246.84 406.93 245.217 407.455 243.379C407.981 241.54 407.905 239.582 407.238 237.789L401.863 235.447Z" fill="#FEF3A6"/>
    <path d="M421.019 412.23L422.289 423.362H431.621L430.339 412.23H421.019Z" fill="#FDE021"/>
    <path d="M491.185 412.23H481.853L485.601 423.362H494.932L491.185 412.23Z" fill="#FDE021"/>
    <path opacity="0.2" d="M468.281 172.887C469.909 164.653 473.077 166.083 476.084 170.138C474.799 181.053 474.206 192.038 474.309 203.027C472.263 199.538 465.557 186.681 468.281 172.887Z" fill="#545456"/>
    <path d="M459.64 129.668C458.309 136.485 456.977 148.985 461.748 153.533C461.748 153.533 459.887 160.461 447.202 160.461C433.26 160.461 440.545 153.546 440.545 153.546C448.151 151.721 447.942 146.075 446.623 140.775L459.64 129.668Z" fill="#FEF3A6"/>
    <path d="M454.339 134.204L446.635 140.774C446.964 142.006 447.183 143.264 447.288 144.534C450.197 144.115 454.191 140.922 454.5 137.878C454.667 136.653 454.613 135.409 454.339 134.204Z" fill="#FDE021"/>
    <path d="M437.957 108.676C433.371 110.623 430.881 123.468 436.724 126.439C442.567 129.41 446.647 105.002 437.957 108.676Z" fill="#4C6C9E"/>
    <path d="M460.454 119.4C459.887 128.633 460.022 134.069 455.363 138.815C448.348 145.94 436.934 141.712 434.739 132.491C432.755 124.195 434.012 110.475 443.06 106.802C445.05 105.983 447.216 105.686 449.353 105.94C451.49 106.193 453.527 106.989 455.269 108.251C457.012 109.514 458.403 111.201 459.311 113.152C460.218 115.103 460.611 117.254 460.454 119.4Z" fill="#FEF3A6"/>
    <path d="M431.966 102.881C437.55 94.4125 438.425 98.4928 438.339 102.524C443.27 97.8641 452.379 91.9224 456.829 97.3463C457.356 97.906 457.699 98.6136 457.812 99.374C457.924 100.134 457.801 100.911 457.458 101.599C463.19 100.071 468.972 99.6392 467.924 105.827C466.999 111.301 463.092 113.31 457.618 113.347C447.806 114.703 424.052 114.838 431.966 102.881Z" fill="#4C6C9E"/>
    <path d="M459.8 128.448C454.869 130.457 444.946 112.349 459.874 110.216C474.802 108.084 467.702 125.206 459.8 128.448Z" fill="#4C6C9E"/>
    <path d="M464.632 129.582C463.385 131.546 461.414 132.941 459.147 133.465C456.139 134.131 454.795 131.394 455.782 128.633C456.669 126.167 459.295 122.827 462.253 123.394C462.897 123.531 463.496 123.828 463.997 124.255C464.497 124.683 464.883 125.229 465.119 125.843C465.356 126.458 465.435 127.122 465.35 127.774C465.265 128.427 465.018 129.048 464.632 129.582Z" fill="#FEF3A6"/>
    <path d="M469.502 113.015C468.816 112.251 467.951 111.671 466.984 111.327C466.018 110.982 464.981 110.885 463.967 111.042C463.967 111.042 468.787 107.246 469.502 113.015Z" fill="#4C6C9E"/>
    <path d="M425.642 236.68C425.642 236.68 399.398 303.369 400.359 331.82C401.407 361.405 418.85 421.204 418.85 421.204H434.653C434.653 421.204 428.181 363.119 428.884 334.076C429.648 302.395 458.469 236.692 458.469 236.692L425.642 236.68Z" fill="#002D74"/>
    <path opacity="0.2" d="M446.598 258.758L448.114 262.197C442.583 276.449 437.777 290.973 433.716 305.712C433.285 288.898 436.761 270.358 446.598 258.758Z" fill="#545456"/>
    <path d="M443.344 236.68C443.344 236.68 438.031 304.873 443.837 331.598C450.197 360.838 481.212 421.179 481.212 421.179H498.298C498.298 421.179 475.443 363.242 471.807 334.249C467.874 302.827 475.505 236.704 475.505 236.704L443.344 236.68Z" fill="#002D74"/>
    <path d="M446.45 122.038C446.45 122.79 446.043 123.406 445.55 123.406C445.057 123.406 444.663 122.79 444.663 122.038C444.663 121.286 445.057 120.682 445.55 120.682C446.043 120.682 446.45 121.224 446.45 122.038Z" fill="#4C6C9E"/>
    <path d="M437.944 122.038C437.944 122.79 437.538 123.406 437.057 123.406C436.576 123.406 436.157 122.79 436.157 122.038C436.157 121.286 436.564 120.682 437.057 120.682C437.55 120.682 437.944 121.224 437.944 122.038Z" fill="#4C6C9E"/>
    <path d="M440.644 122.358C439.747 124.653 438.54 126.814 437.057 128.781C437.569 129.149 438.155 129.401 438.775 129.518C439.395 129.635 440.033 129.615 440.644 129.459V122.358Z" fill="#4C6C9E"/>
    <path d="M442.838 131.542C442.779 131.542 442.723 131.518 442.681 131.477C442.64 131.435 442.616 131.379 442.616 131.32C442.616 131.261 442.64 131.204 442.681 131.163C442.723 131.121 442.779 131.098 442.838 131.098C443.774 131.119 444.701 130.918 445.545 130.514C446.389 130.109 447.126 129.511 447.695 128.768C447.711 128.744 447.732 128.723 447.756 128.707C447.781 128.69 447.808 128.679 447.836 128.673C447.865 128.668 447.894 128.667 447.923 128.673C447.952 128.679 447.979 128.69 448.003 128.706C448.049 128.739 448.081 128.787 448.092 128.842C448.104 128.897 448.094 128.954 448.065 129.002C447.464 129.816 446.674 130.473 445.764 130.915C444.854 131.357 443.85 131.572 442.838 131.542Z" fill="#4C6C9E"/>
    <path d="M449.002 119.24C448.935 119.238 448.87 119.221 448.81 119.192C448.75 119.162 448.698 119.119 448.657 119.067C448.335 118.614 447.91 118.243 447.417 117.986C446.924 117.729 446.377 117.592 445.821 117.588C445.763 117.593 445.704 117.586 445.648 117.567C445.592 117.549 445.54 117.519 445.497 117.48C445.453 117.44 445.417 117.392 445.393 117.339C445.368 117.286 445.354 117.228 445.353 117.169C445.346 117.053 445.385 116.939 445.461 116.852C445.537 116.764 445.644 116.71 445.76 116.7C446.462 116.696 447.154 116.86 447.78 117.177C448.406 117.494 448.948 117.956 449.359 118.525C449.429 118.62 449.459 118.739 449.443 118.856C449.427 118.974 449.366 119.08 449.273 119.153C449.192 119.206 449.098 119.236 449.002 119.24Z" fill="#4C6C9E"/>
    <path d="M434.221 119.054C434.156 119.066 434.089 119.066 434.024 119.054C433.972 119.029 433.924 118.994 433.886 118.95C433.847 118.907 433.818 118.856 433.799 118.801C433.781 118.745 433.774 118.687 433.778 118.629C433.783 118.571 433.8 118.514 433.827 118.463C434.118 117.827 434.558 117.272 435.11 116.843C435.661 116.414 436.308 116.124 436.995 115.997C437.104 115.995 437.21 116.034 437.293 116.105C437.376 116.177 437.429 116.277 437.443 116.385C437.456 116.493 437.43 116.603 437.368 116.693C437.305 116.783 437.212 116.847 437.106 116.872C436.568 116.989 436.064 117.231 435.636 117.578C435.208 117.925 434.867 118.367 434.641 118.869C434.595 118.936 434.532 118.989 434.458 119.022C434.384 119.055 434.302 119.066 434.221 119.054Z" fill="#4C6C9E"/>
    <path d="M481.989 162.902C482.79 164.628 483.468 166.169 484.109 167.833C484.75 169.497 485.342 171.075 485.995 172.764C487.228 176.043 488.251 179.371 489.188 182.761C490.125 186.151 490.902 189.615 491.543 193.141L491.986 195.791L492.307 198.503C492.43 199.403 492.479 200.327 492.553 201.252L492.64 202.633V202.978V203.557C492.64 203.989 492.64 204.383 492.64 204.79C492.396 207.217 491.693 209.577 490.569 211.742C489.693 213.484 488.7 215.164 487.598 216.772C485.556 219.712 483.319 222.512 480.904 225.154C476.258 230.271 471.217 235.015 465.828 239.343L460.897 234.412C464.928 229.259 468.947 223.934 472.608 218.645C474.39 216.071 476.036 213.405 477.539 210.657C478.227 209.424 478.824 208.143 479.326 206.824C479.692 205.981 479.901 205.079 479.943 204.161V203.878L479.77 202.768C479.659 202.016 479.561 201.277 479.388 200.525L478.944 198.269L478.414 196.001C477.662 192.968 476.812 189.923 475.826 186.891C474.839 183.858 473.792 180.838 472.67 177.818C471.548 174.798 470.315 171.753 469.169 168.967L481.989 162.902Z" fill="#FEF3A6"/>
    <path d="M484.787 434.368C484.154 434.416 483.523 434.247 483 433.888C482.824 433.739 482.689 433.547 482.609 433.331C482.529 433.115 482.507 432.882 482.544 432.655C482.543 432.528 482.577 432.403 482.642 432.295C482.707 432.186 482.801 432.097 482.914 432.038C483.961 431.508 486.957 433.357 487.302 433.567C487.338 433.59 487.367 433.624 487.384 433.663C487.402 433.703 487.408 433.746 487.401 433.789C487.393 433.833 487.372 433.874 487.341 433.907C487.311 433.939 487.272 433.963 487.228 433.974C486.431 434.193 485.613 434.325 484.787 434.368ZM483.407 432.433C483.308 432.425 483.21 432.447 483.123 432.495C483.062 432.495 482.988 432.581 482.975 432.753C482.96 432.902 482.98 433.052 483.034 433.191C483.087 433.33 483.173 433.455 483.283 433.555C484.325 434.023 485.505 434.08 486.587 433.715C485.619 433.087 484.54 432.651 483.407 432.433Z" fill="#002D74"/>
    <path d="M487.179 434.036H487.08C486.106 433.506 484.245 431.472 484.442 430.424C484.476 430.262 484.564 430.116 484.692 430.011C484.819 429.906 484.979 429.847 485.145 429.845C485.312 429.826 485.481 429.841 485.643 429.89C485.804 429.939 485.953 430.02 486.082 430.128C487.166 431.016 487.388 433.703 487.401 433.827C487.402 433.865 487.393 433.903 487.376 433.938C487.359 433.972 487.333 434.002 487.302 434.024C487.263 434.04 487.22 434.045 487.179 434.036ZM485.305 430.215H485.194C484.911 430.215 484.886 430.375 484.874 430.437C484.763 431.053 485.946 432.594 486.908 433.321C486.84 432.26 486.458 431.243 485.81 430.4C485.669 430.28 485.49 430.214 485.305 430.215Z" fill="#002D74"/>
    <path d="M419.676 434.369C418.88 434.44 418.083 434.235 417.42 433.789C417.268 433.658 417.15 433.492 417.077 433.305C417.004 433.118 416.978 432.916 417.001 432.717C417.008 432.596 417.044 432.48 417.106 432.377C417.168 432.273 417.255 432.187 417.358 432.125C418.505 431.496 422.289 433.358 422.671 433.617C422.714 433.637 422.749 433.671 422.771 433.712C422.793 433.754 422.801 433.802 422.794 433.849C422.788 433.896 422.766 433.939 422.733 433.973C422.699 434.006 422.656 434.028 422.609 434.036C421.643 434.234 420.662 434.345 419.676 434.369ZM417.987 432.433C417.846 432.424 417.705 432.454 417.58 432.519C417.536 432.54 417.499 432.573 417.475 432.615C417.451 432.657 417.44 432.705 417.444 432.754C417.426 432.883 417.44 433.015 417.485 433.138C417.53 433.26 417.605 433.37 417.703 433.456C418.283 433.974 419.824 434.06 421.87 433.715C420.658 433.069 419.345 432.636 417.987 432.433Z" fill="#002D74"/>
    <path d="M422.572 434.036C422.541 434.048 422.506 434.048 422.474 434.036C421.352 433.531 419.121 431.571 419.293 430.462C419.293 430.215 419.503 429.907 420.119 429.845C420.34 429.823 420.563 429.845 420.775 429.911C420.986 429.977 421.183 430.084 421.352 430.227C422.585 431.201 422.794 433.716 422.794 433.815C422.8 433.854 422.795 433.894 422.78 433.931C422.765 433.968 422.74 434 422.708 434.024C422.665 434.042 422.618 434.046 422.572 434.036ZM420.354 430.215H420.218C419.824 430.215 419.799 430.412 419.787 430.462C419.688 431.09 421.204 432.681 422.351 433.371C422.246 432.309 421.816 431.306 421.118 430.499C420.906 430.314 420.634 430.213 420.354 430.215Z" fill="#002D74"/>
    <path d="M463.055 233.043L453.908 235.508L461.489 244.704C461.489 244.704 468.824 240.895 467.246 236.79L463.055 233.043Z" fill="#FEF3A6"/>
    <path d="M449.174 241.66L455.794 248.957L461.489 244.668L453.908 235.472L449.174 241.66Z" fill="#FEF3A6"/>
    <path d="M478.192 421.574H500.529V415.558L475.567 415.176L478.192 421.574Z" fill="#002D74"/>
    <path opacity="0.4" d="M478.192 421.574H500.529V415.558L475.567 415.176L478.192 421.574Z" fill="#545456"/>
    <path d="M415.263 421.574H437.599V415.496L412.637 415.176L415.263 421.574Z" fill="#002D74"/>
    <path opacity="0.4" d="M415.263 421.574H437.599V415.496L412.637 415.176L415.263 421.574Z" fill="#545456"/>
    <path d="M480.387 156.257C488.707 159.462 497.028 188.973 497.028 188.973L474.839 197.701C474.839 197.701 468.22 182.44 465.964 171.099C463.646 159.203 470.956 152.633 480.387 156.257Z" fill="#002D74"/>
    <path opacity="0.2" d="M480.387 156.257C488.707 159.462 497.028 188.973 497.028 188.973L474.839 197.701C474.839 197.701 468.22 182.44 465.964 171.099C463.646 159.203 470.956 152.633 480.387 156.257Z" fill="#545456"/>
    <path d="M390.436 203.089C388.072 211.329 388.309 220.098 391.114 228.199C393.679 235.738 398.361 242.38 404.6 247.331C412.91 253.91 423.409 257.088 433.973 256.221C444.537 255.355 454.378 250.508 461.505 242.663C468.632 234.817 472.513 224.557 472.364 213.958C472.214 203.36 468.045 193.214 460.7 185.572C455.654 180.318 449.309 176.49 442.308 174.477C435.834 172.605 429.004 172.318 422.395 173.642C415.787 174.966 409.594 177.861 404.341 182.083C403.384 182.855 402.471 183.678 401.604 184.549C396.314 189.637 392.461 196.033 390.436 203.089Z" fill="#002D74"/>
    <path opacity="0.6" d="M390.436 203.089C388.072 211.329 388.309 220.098 391.114 228.199C393.679 235.738 398.361 242.38 404.6 247.331C412.91 253.91 423.409 257.088 433.973 256.221C444.537 255.355 454.378 250.508 461.505 242.663C468.632 234.817 472.513 224.557 472.364 213.958C472.214 203.36 468.045 193.214 460.7 185.572C455.654 180.318 449.309 176.49 442.308 174.477C435.834 172.605 429.004 172.318 422.395 173.642C415.787 174.966 409.594 177.861 404.341 182.083C403.384 182.855 402.471 183.678 401.604 184.549C396.314 189.637 392.461 196.033 390.436 203.089Z" fill="#545456"/>
    <path d="M455.449 183.932L425.371 212.962L413.845 253.148C422.691 255.688 432.127 255.238 440.691 251.867C449.255 248.496 456.467 242.393 461.208 234.505C465.949 226.617 467.955 217.385 466.913 208.241C465.872 199.097 461.842 190.552 455.449 183.932Z" fill="#002D74"/>
    <path opacity="0.9" d="M455.449 183.932L425.371 212.962L413.845 253.148C422.691 255.688 432.127 255.238 440.691 251.867C449.255 248.496 456.467 242.393 461.208 234.505C465.949 226.617 467.955 217.385 466.913 208.241C465.872 199.097 461.842 190.552 455.449 183.932Z" fill="white"/>
    <g opacity="0.7">
        <path d="M425.371 212.962L455.449 183.92C450.351 178.638 443.952 174.792 436.897 172.768C429.841 170.745 422.376 170.615 415.254 172.391C408.132 174.168 401.603 177.789 396.325 182.89C391.046 187.991 387.204 194.392 385.184 201.449L425.371 212.962Z" fill="#002D74"/>
        <path opacity="0.44" d="M425.371 212.962L455.449 183.92C450.351 178.638 443.952 174.792 436.897 172.768C429.841 170.745 422.376 170.615 415.254 172.391C408.132 174.168 401.603 177.789 396.325 182.89C391.046 187.991 387.204 194.392 385.184 201.449L425.371 212.962Z" fill="white"/>
    </g>
    <path d="M393.407 247.528L402.467 250.388L404.279 248.046L394.011 242.018L393.407 247.528Z" fill="#FEF3A6"/>
    <path d="M425.371 212.963L385.197 201.449C382.146 212.106 383.451 223.537 388.825 233.232C394.199 242.927 403.203 250.09 413.857 253.149L425.371 212.963Z" fill="#002D74"/>
    <path opacity="0.6" d="M425.371 212.963L385.197 201.449C382.146 212.106 383.451 223.537 388.825 233.232C394.199 242.927 403.203 250.09 413.857 253.149L425.371 212.963Z" fill="#545456"/>
    <path d="M195.064 156.381C192.907 158.588 190.589 161.028 188.456 163.469C186.324 165.91 184.179 168.4 182.17 170.952C180.16 173.503 178.262 176.129 176.438 178.779L175.106 180.789L173.874 182.823C173.454 183.501 173.06 184.191 172.641 184.881L171.618 186.767C171.202 187.843 170.964 188.98 170.915 190.133C170.816 191.618 170.816 193.109 170.915 194.595C171.145 197.792 171.557 200.973 172.148 204.124C172.702 207.353 173.38 210.596 174.182 213.813C174.983 217.03 175.772 220.309 176.647 223.49L171.901 225.265C169.026 218.985 166.624 212.499 164.715 205.862C163.731 202.452 162.977 198.981 162.459 195.47C162.199 193.595 162.067 191.705 162.064 189.812C162.03 187.581 162.406 185.362 163.174 183.266C163.469 182.551 163.63 182.256 163.827 181.836L164.406 180.604C164.788 179.79 165.195 178.989 165.639 178.212L166.872 175.858L168.228 173.565C170.04 170.549 172.011 167.632 174.132 164.825C176.228 162.027 178.398 159.29 180.69 156.665C182.983 154.039 185.313 151.524 187.963 148.997L195.064 156.381Z" fill="#FEF3A6"/>
    <path d="M175.34 221.48L183.772 223.946L178.163 229.641C178.163 229.641 172.086 227.767 171.236 223.625L175.34 221.48Z" fill="#FEF3A6"/>
    <path d="M188.888 230.479L187.458 235.915L178.163 229.678L183.772 223.995L188.888 230.479Z" fill="#FEF3A6"/>
    <path d="M113.409 383.31L120.312 390.719L139.05 377.307L132.134 369.898L113.409 383.31Z" fill="#FEF3A6"/>
    <path d="M205.012 410.454L203.36 423.201L193.486 421.549L195.014 409.715L205.012 410.454Z" fill="#FDE021"/>
    <path d="M132.134 369.898L139.037 377.319L131.283 382.867L124.134 375.618L132.134 369.898Z" fill="#FDE021"/>
    <path d="M222.307 207.551C222.307 207.551 202.781 272.946 193.239 310.642C183.18 350.372 135.142 382.768 135.142 382.768L124.886 372.573C124.886 372.573 156.998 345.454 166.798 308.386C186.595 233.105 177.079 217.166 192.857 201.855L222.307 207.551Z" fill="#002D74"/>
    <path opacity="0.6" d="M222.307 207.551C222.307 207.551 202.781 272.946 193.239 310.642C183.18 350.372 135.142 382.768 135.142 382.768L124.886 372.573C124.886 372.573 156.998 345.454 166.798 308.386C186.595 233.105 177.079 217.166 192.857 201.855L222.307 207.551Z" fill="#545456"/>
    <path d="M123.332 389.536L117.576 379.674C117.481 379.503 117.328 379.372 117.144 379.307C116.96 379.241 116.759 379.244 116.577 379.317L108.367 382.62C108.164 382.717 107.982 382.856 107.835 383.027C107.688 383.198 107.579 383.398 107.514 383.614C107.449 383.83 107.43 384.057 107.458 384.281C107.486 384.505 107.561 384.72 107.677 384.913C109.748 388.303 110.907 389.844 113.446 394.171C115.012 396.834 117.021 400.877 119.166 404.55C121.311 408.224 124.972 406.35 124.393 404.637C121.804 396.932 123.16 394.701 123.665 391.274C123.757 390.674 123.639 390.06 123.332 389.536Z" fill="#4C6C9E"/>
    <path d="M136.017 384.222L123.222 371.488L126.698 367.63L142.279 380.894L136.017 384.222Z" fill="#D8D8DC"/>
    <path opacity="0.3" d="M213.135 221.48C200.327 231.342 199.465 269.014 199.76 286.025C206.281 262.246 213.986 235.78 218.485 220.482C217.253 219.422 215.49 219.656 213.135 221.48Z" fill="#545456"/>
    <path d="M125.403 394.91C125.282 394.907 125.161 394.886 125.046 394.848C123.813 394.478 122.963 392.247 122.581 390.953C122.566 390.907 122.566 390.858 122.579 390.812C122.592 390.766 122.618 390.725 122.655 390.694C122.692 390.667 122.737 390.652 122.784 390.652C122.83 390.652 122.876 390.667 122.913 390.694C123.283 390.879 126.525 392.568 126.611 393.85C126.625 393.988 126.602 394.128 126.546 394.255C126.49 394.383 126.402 394.493 126.291 394.577C126.041 394.785 125.728 394.902 125.403 394.91ZM123.197 391.372C123.801 393.085 124.528 394.195 125.182 394.404C125.327 394.441 125.479 394.44 125.623 394.401C125.768 394.362 125.9 394.287 126.007 394.183C126.06 394.152 126.102 394.106 126.128 394.051C126.154 393.996 126.164 393.935 126.155 393.874C126.081 393.233 124.504 392.087 123.197 391.372Z" fill="#002D74"/>
    <path d="M125.736 391.792C124.67 391.789 123.617 391.549 122.654 391.089C122.621 391.065 122.594 391.034 122.576 390.997C122.557 390.961 122.548 390.92 122.548 390.88C122.548 390.839 122.557 390.798 122.576 390.762C122.594 390.726 122.621 390.694 122.654 390.67C122.765 390.67 125.194 389.203 126.575 389.659C126.753 389.71 126.918 389.801 127.057 389.925C127.196 390.049 127.305 390.202 127.376 390.374C127.471 390.539 127.506 390.732 127.477 390.92C127.448 391.108 127.356 391.281 127.216 391.41C126.78 391.701 126.258 391.836 125.736 391.792ZM123.271 390.867C124.405 391.323 126.365 391.508 126.883 391.052C126.969 390.978 127.043 390.855 126.883 390.571C126.837 390.46 126.766 390.36 126.677 390.279C126.587 390.198 126.481 390.138 126.365 390.103C125.28 390.041 124.202 390.308 123.271 390.867Z" fill="#002D74"/>
    <path d="M192.056 432.656L202.053 433.396L205.012 410.443L195.027 409.703L192.056 432.656Z" fill="#FEF3A6"/>
    <path d="M232.292 209.561C232.292 209.561 234.757 288.688 229.197 318.495C223.379 349.498 205.665 420.009 205.665 420.009L191.255 418.147C191.255 418.147 200.377 346.909 204.235 316.116C208.463 282.537 202.928 203.878 202.928 203.878L232.292 209.561Z" fill="#002D74"/>
    <path opacity="0.6" d="M232.292 209.561C232.292 209.561 234.757 288.688 229.197 318.495C223.379 349.498 205.665 420.009 205.665 420.009L191.255 418.147C191.255 418.147 200.377 346.909 204.235 316.116C208.463 282.537 202.928 203.878 202.928 203.878L232.292 209.561Z" fill="#545456"/>
    <path d="M243.386 115.431C243.25 116.233 243.571 116.948 244.089 117.059C244.606 117.17 245.136 116.59 245.321 115.826C245.506 115.062 245.136 114.31 244.619 114.211C244.101 114.112 243.522 114.642 243.386 115.431Z" fill="#4C6C9E"/>
    <path d="M244.323 114.186L246.332 114.001C246.332 114.001 245.099 115.308 244.323 114.186Z" fill="#4C6C9E"/>
    <path d="M243.928 116.331C244.342 118.283 245.017 120.17 245.938 121.94C245.477 122.151 244.977 122.26 244.471 122.26C243.965 122.26 243.464 122.151 243.004 121.94L243.928 116.331Z" fill="#4C6C9E"/>
    <path d="M245.309 112.177C245.217 112.177 245.127 112.15 245.051 112.1C244.974 112.049 244.914 111.977 244.878 111.893C244.645 111.334 244.287 110.836 243.832 110.436C243.377 110.037 242.836 109.746 242.252 109.588C242.191 109.578 242.133 109.555 242.081 109.522C242.029 109.489 241.984 109.446 241.948 109.396C241.913 109.346 241.888 109.289 241.874 109.229C241.861 109.169 241.859 109.106 241.87 109.046C241.894 108.922 241.965 108.813 242.069 108.741C242.173 108.67 242.3 108.642 242.424 108.663C243.162 108.845 243.846 109.197 244.422 109.692C244.998 110.187 245.45 110.81 245.74 111.511C245.791 111.626 245.795 111.756 245.751 111.873C245.707 111.99 245.62 112.086 245.506 112.14L245.309 112.177Z" fill="#4C6C9E"/>
    <path d="M218.091 122.038C218.276 128.078 217.659 138.976 212.926 142.07C212.926 142.07 213.542 148.233 224.427 150.39C236.396 152.708 231.133 145.595 231.133 145.595C224.846 142.772 225.82 137.989 227.706 133.687L218.091 122.038Z" fill="#FEF3A6"/>
    <path d="M248.908 154.359C251.374 156.233 254.086 158.218 256.761 160.03C259.436 161.842 262.172 163.728 264.958 165.367C267.744 167.007 270.567 168.622 273.402 170.138C276.228 171.598 279.129 172.907 282.093 174.058C282.352 174.157 282.266 174.058 282.327 174.144H282.487C282.647 174.167 282.809 174.167 282.968 174.144C283.461 174.147 283.953 174.097 284.435 173.996C285.744 173.677 287.013 173.214 288.22 172.616C291.012 171.199 293.68 169.549 296.195 167.685C298.833 165.824 301.41 163.79 303.937 161.669C306.464 159.549 308.978 157.343 311.394 155.148L315.093 158.538C310.866 164.047 306.145 169.159 300.99 173.812C298.287 176.228 295.361 178.382 292.251 180.246C290.5 181.274 288.639 182.101 286.703 182.712C285.561 183.053 284.381 183.252 283.19 183.303C282.507 183.341 281.822 183.312 281.144 183.217C280.778 183.174 280.416 183.108 280.059 183.02C279.739 182.934 279.233 182.798 279.098 182.736C272.383 180.521 265.921 177.604 259.818 174.033C256.81 172.283 253.839 170.471 250.955 168.523C248.07 166.576 245.309 164.591 242.486 162.286L248.908 154.359Z" fill="#FEF3A6"/>
    <path d="M310.643 156.086L313.576 148.529L319.74 154.693C319.74 154.693 316.818 160.314 312.627 160.326L310.643 156.086Z" fill="#FEF3A6"/>
    <path d="M319.654 146.347L325.509 148.183L319.789 154.68L313.601 148.529L319.654 146.347Z" fill="#FEF3A6"/>
    <path d="M202.67 431.965H191.44C191.244 431.963 191.053 432.032 190.904 432.158C190.754 432.285 190.656 432.462 190.626 432.656L189.11 441.543C189.08 441.766 189.098 441.992 189.163 442.207C189.228 442.422 189.339 442.62 189.487 442.788C189.636 442.957 189.819 443.091 190.024 443.183C190.229 443.274 190.451 443.32 190.675 443.318C194.595 443.257 196.481 443.023 201.425 443.023C204.457 443.023 210.744 443.343 214.984 443.343C219.225 443.343 219.508 439.189 217.77 438.807C209.98 437.13 206.959 434.8 204.371 432.582C203.899 432.174 203.293 431.955 202.67 431.965Z" fill="#4C6C9E"/>
    <path d="M217.105 108.109C216.106 117.97 215.465 122.075 219.57 128.029C225.734 136.966 238.061 136.412 242.042 127.154C245.58 118.833 246.64 104.139 237.703 98.4195C235.803 97.1289 233.599 96.3555 231.309 96.1755C229.019 95.9954 226.721 96.415 224.642 97.3928C222.563 98.3706 220.775 99.8729 219.453 101.752C218.132 103.631 217.322 105.822 217.105 108.109Z" fill="#FEF3A6"/>
    <path d="M218.189 129.558C213.505 127.647 209.129 120.103 209.302 108.306C209.474 96.5086 218.263 89.6671 233.956 94.6349C249.648 99.6027 233.5 135.82 218.189 129.558Z" fill="#4C6C9E"/>
    <path d="M231.478 95.72C236.101 93.9079 246.332 96.1514 246.332 105.779L236.384 113.853L231.478 95.72Z" fill="#4C6C9E"/>
    <path d="M230.184 95.6337C236.347 95.2763 238.739 95.3009 244.323 96.8665C240.649 92.4534 233.771 93.908 230.184 95.6337Z" fill="#4C6C9E"/>
    <path d="M235.521 113.237C235.33 115.068 235.704 116.913 236.594 118.525C237.826 120.793 239.688 120.485 240.378 118.648C241.007 116.996 241.118 113.828 239.392 112.127C237.666 110.426 235.817 111.203 235.521 113.237Z" fill="#FEF3A6"/>
    <path d="M210.275 99.591C213.85 101.785 226.005 99.9731 228.63 95.3012C231.256 90.6292 222.183 82.8138 213.961 83.0973C205.739 83.3809 202.312 94.6848 210.275 99.591Z" fill="#002D74"/>
    <path d="M208.735 420.872L188.185 418.221L188.444 413.34L210.793 414.314L208.735 420.872Z" fill="#D8D8DC"/>
    <path d="M206.392 433.717C205.336 433.698 204.283 433.578 203.249 433.359C203.201 433.351 203.156 433.328 203.123 433.292C203.09 433.256 203.069 433.211 203.064 433.162C203.058 433.113 203.066 433.064 203.088 433.02C203.11 432.976 203.145 432.94 203.187 432.915C203.643 432.681 207.687 430.635 208.895 431.325C209.009 431.387 209.104 431.477 209.171 431.588C209.238 431.698 209.275 431.825 209.277 431.954C209.301 432.168 209.272 432.384 209.193 432.584C209.113 432.784 208.985 432.962 208.821 433.1C208.108 433.582 207.249 433.8 206.392 433.717ZM204.038 433.026C206.244 433.396 207.884 433.297 208.513 432.755C208.619 432.66 208.701 432.541 208.753 432.409C208.804 432.276 208.823 432.133 208.808 431.991C208.809 431.938 208.795 431.887 208.77 431.841C208.744 431.796 208.706 431.758 208.661 431.732C208.007 431.362 205.702 432.237 204.038 433.026Z" fill="#002D74"/>
    <path d="M203.298 433.358C203.25 433.369 203.199 433.369 203.15 433.358C203.118 433.331 203.094 433.297 203.079 433.258C203.064 433.22 203.059 433.178 203.064 433.136C203.064 432.964 203.545 428.871 205.776 428.871H205.973C206.614 428.933 206.799 429.266 206.848 429.524C207.033 430.659 204.605 432.828 203.397 433.37L203.298 433.358ZM205.764 429.315C204.321 429.315 203.754 431.682 203.569 432.705C204.802 431.953 206.466 430.239 206.355 429.574C206.355 429.574 206.355 429.364 205.899 429.315H205.764Z" fill="#002D74"/>
    <path d="M195.619 140.947C188.678 141.268 182.059 152.769 182.059 152.769L191.218 171.482C191.218 171.482 203.631 161.139 203.791 150.969C203.927 144.362 202.435 140.639 195.619 140.947Z" fill="#002D74"/>
    <path opacity="0.8" d="M195.619 140.947C188.678 141.268 182.059 152.769 182.059 152.769L191.218 171.482C191.218 171.482 203.631 161.139 203.791 150.969C203.927 144.362 202.435 140.639 195.619 140.947Z" fill="white"/>
    <path d="M192.808 201.832L232.896 209.598C251.83 153.83 247.306 152.03 247.306 152.03C244.361 150.44 241.323 149.028 238.209 147.802L237.654 147.593C235.102 146.668 234.56 146.52 231.121 145.522C225.216 144.129 219.718 142.995 212.913 142.008L211.619 141.824C210.386 141.676 209.154 141.54 207.983 141.429C207.194 141.343 206.392 141.294 205.64 141.232L203.052 141.096C198.663 140.874 195.532 140.948 195.532 140.948C197.825 175.748 196.149 185.745 192.808 201.832Z" fill="#002D74"/>
    <path opacity="0.6" d="M192.808 201.832L232.896 209.598C251.83 153.83 247.306 152.03 247.306 152.03C244.361 150.44 241.323 149.028 238.209 147.802L237.654 147.593C235.102 146.668 234.56 146.52 231.121 145.522C225.216 144.129 219.718 142.995 212.913 142.008L211.619 141.824C210.386 141.676 209.154 141.54 207.983 141.429C207.194 141.343 206.392 141.294 205.64 141.232L203.052 141.096C198.663 140.874 195.532 140.948 195.532 140.948C197.825 175.748 196.149 185.745 192.808 201.832Z" fill="white"/>
    <path opacity="0.2" d="M237.531 165.441C239.121 168.572 241.007 172.727 243.534 175.599C244.261 172.961 244.865 170.668 245.383 168.535L237.531 165.441Z" fill="#002D74"/>
    <path d="M205.394 173.812C215.391 165.91 217.499 158.563 216.106 152.141C214.713 145.718 213.111 134.513 214.257 130.766C215.403 127.018 219.397 119.24 218.584 112.596C217.77 105.951 215.872 96.7183 217.696 92.7243C219.521 88.7303 225.314 86.3635 220.618 80.6931C218.337 77.9441 208.673 77.525 206.146 85.1924C203.619 92.8599 193.239 96.1759 189.159 96.9402C185.079 97.7044 177.892 102.29 176.647 109.76C175.402 117.231 170.385 120.177 163.494 124.01C156.603 127.844 146.692 142.871 150.637 156.209C155.962 174.465 190.503 185.621 205.394 173.812Z" fill="#4C6C9E"/>
    <path d="M235.447 148.652C238.554 146.187 251.929 154.298 256.021 157.688L253.63 175.266C253.63 175.266 234.523 167.352 233.216 161.941C231.811 156.307 232.982 150.538 235.447 148.652Z" fill="#002D74"/>
    <path opacity="0.6" d="M235.447 148.652C238.554 146.187 251.929 154.298 256.021 157.688L253.63 175.266C253.63 175.266 234.523 167.352 233.216 161.941C231.811 156.307 232.982 150.538 235.447 148.652Z" fill="white"/>
    <path d="M192.586 199.378L190.195 202.596C190.01 202.842 190.293 203.187 190.749 203.286L232.797 211.422C233.155 211.496 233.487 211.422 233.549 211.151L234.498 207.65C234.56 207.415 234.289 207.144 233.894 207.07L193.289 199.206C193.167 199.169 193.037 199.166 192.914 199.196C192.79 199.227 192.677 199.289 192.586 199.378Z" fill="#99ABC7"/>
    <path d="M197.295 204.95L196.21 204.74C196.001 204.74 195.853 204.555 195.89 204.42L197.122 199.883C197.122 199.748 197.369 199.674 197.591 199.711L198.676 199.92C198.885 199.92 199.033 200.105 198.996 200.241L197.763 204.777C197.726 204.913 197.517 204.987 197.295 204.95Z" fill="#002D74"/>
    <path d="M224.76 210.324L223.663 210.115C223.453 210.115 223.305 209.93 223.342 209.794L224.575 205.258C224.575 205.134 224.821 205.06 225.043 205.097L226.128 205.307C226.35 205.307 226.498 205.492 226.461 205.627L225.228 210.164C225.179 210.299 224.969 210.373 224.76 210.324Z" fill="#002D74"/>
    <path opacity="0.6" d="M197.295 204.95L196.21 204.74C196.001 204.74 195.853 204.555 195.89 204.42L197.122 199.883C197.122 199.748 197.369 199.674 197.591 199.711L198.676 199.92C198.885 199.92 199.033 200.105 198.996 200.241L197.763 204.777C197.726 204.913 197.517 204.987 197.295 204.95Z" fill="#545456"/>
    <path opacity="0.6" d="M224.76 210.324L223.663 210.115C223.453 210.115 223.305 209.93 223.342 209.794L224.575 205.258C224.575 205.134 224.821 205.06 225.043 205.097L226.128 205.307C226.35 205.307 226.498 205.492 226.461 205.627L225.228 210.164C225.179 210.299 224.969 210.373 224.76 210.324Z" fill="#545456"/>
</svg>
