<svg width="213" height="46" viewBox="0 0 213 46" fill="none" xmlns="http://www.w3.org/2000/svg">
    <g clip-path="url(#clip0_1613_8936)">
        <path d="M49.2998 9.21145C49.5701 8.94109 49.5709 8.50179 49.2914 8.24091C47.5305 6.59753 45.4864 5.2831 43.2556 4.36195C40.8112 3.35268 38.1905 2.83538 35.543 2.83947C32.8954 2.84373 30.2731 3.3693 27.8255 4.38628C25.378 5.40335 23.153 6.89188 21.278 8.76689C19.403 10.6419 17.9145 12.8668 16.8974 15.3143C15.8804 17.762 15.3549 20.3843 15.3506 23.0318C15.3465 25.6794 15.8638 28.3001 16.8731 30.7445C17.8824 33.1888 19.364 35.4091 21.2331 37.2781L28.3721 30.1391C27.4375 29.2045 26.6968 28.0945 26.1922 26.8722C25.6875 25.65 25.4288 24.3397 25.4309 23.0159C25.433 21.6922 25.6958 20.381 26.2043 19.1572C26.7128 17.9334 27.4571 16.821 28.3946 15.8835C29.3322 14.9459 30.4445 14.2017 31.6684 13.6932C32.8921 13.1847 34.2033 12.9218 35.5271 12.9198C36.8508 12.9177 38.1612 13.1764 39.3834 13.681C40.3919 14.0974 41.324 14.6745 42.1442 15.3887C42.4326 15.6398 42.8694 15.6418 43.1398 15.3714L49.2998 9.21145Z" fill="#BCBCC0"/>
        <path d="M30.752 27.7596C33.3723 30.3799 37.6272 30.3732 40.2557 27.7446C42.8843 25.1161 42.891 20.8612 40.2707 18.2409C37.6504 15.6207 33.3956 15.6274 30.767 18.2559C28.1385 20.8845 28.1318 25.1393 30.752 27.7596Z" fill="#BCBCC0"/>
        <path d="M21.2781 8.7666C19.4031 10.6416 17.9145 12.8665 16.8975 15.3141C15.8805 17.7617 15.3549 20.384 15.3507 23.0315C15.3466 25.6791 15.8639 28.2998 16.8731 30.7442C17.8825 33.1885 19.364 35.4088 21.2331 37.2779C23.1022 39.147 25.3224 40.6285 27.7668 41.6378C30.2112 42.6471 32.8319 43.1644 35.4794 43.1603C38.127 43.156 40.7493 42.6305 43.1969 41.6135C45.4313 40.685 47.4801 39.3636 49.2466 37.714C49.526 37.453 49.5252 37.0137 49.2548 36.7434L43.1173 30.6059C42.847 30.3355 42.4101 30.3375 42.1219 30.5888C41.2991 31.3062 40.3645 31.8868 39.354 32.3066C38.1303 32.8151 36.8191 33.0779 35.4953 33.08C34.1716 33.0821 32.8612 32.8234 31.639 32.3188C30.4168 31.8142 29.3068 31.0734 28.3722 30.1388C27.4376 29.2042 26.6968 28.0942 26.1922 26.8719C25.6875 25.6498 25.4289 24.3394 25.4309 23.0156C25.433 21.6919 25.6959 20.3807 26.2044 19.1569C26.7128 17.9331 27.4571 16.8207 28.3946 15.8832L21.2781 8.7666Z" fill="white"/>
        <path d="M40.2557 27.7443C41.518 26.482 42.2287 24.7716 42.2316 22.9894C42.2344 21.207 41.5291 19.4988 40.2708 18.2405C39.0125 16.9822 37.3043 16.277 35.522 16.2798C33.7396 16.2826 32.0292 16.9933 30.7669 18.2555L35.5114 23L40.2557 27.7443Z" fill="white"/>
        <path d="M76.5 17.3165L72.9101 18.8395C72.3052 19.0962 71.6287 18.7012 71.3847 18.0911C71.31 17.9042 71.2247 17.7254 71.1289 17.5546C70.8355 17.0241 70.4588 16.5728 69.9989 16.2007C69.539 15.8286 69.0077 15.5435 68.405 15.3456C67.8103 15.1477 67.164 15.0487 66.4662 15.0487C65.2054 15.0487 64.1072 15.3614 63.1715 15.9869C62.2358 16.6045 61.5102 17.5071 60.9948 18.6948C60.4794 19.8745 60.2217 21.3076 60.2217 22.9941C60.2217 24.728 60.4794 26.1849 60.9948 27.3646C61.5182 28.5443 62.2477 29.4351 63.1834 30.0368C64.1191 30.6386 65.2015 30.9394 66.4306 30.9394C67.1204 30.9394 67.7588 30.8484 68.3456 30.6663C68.9403 30.4842 69.4676 30.2189 69.9275 29.8705C70.3874 29.5143 70.7681 29.0827 71.0694 28.576C71.1678 28.4147 71.2566 28.2462 71.3358 28.0704C71.6039 27.4753 72.2885 27.1076 72.8814 27.3805L76.3995 29C76.2609 29.3702 76.0979 29.7356 75.9104 30.0962C75.3791 31.1255 74.6615 32.0479 73.7575 32.8634C72.8615 33.671 71.791 34.3124 70.546 34.7874C69.309 35.2546 67.9094 35.4881 66.3473 35.4881C64.1746 35.4881 62.2318 34.9972 60.519 34.0154C58.8141 33.0336 57.4661 31.6124 56.4749 29.7518C55.4916 27.8911 55 25.6386 55 22.9941C55 20.3416 55.4996 18.0851 56.4987 16.2245C57.4978 14.3638 58.8538 12.9466 60.5666 11.9727C62.2794 10.9909 64.2063 10.5 66.3473 10.5C67.7588 10.5 69.0672 10.6979 70.2725 11.0938C71.4857 11.4897 72.5602 12.0677 73.4958 12.8278C74.4315 13.58 75.1928 14.5024 75.7796 15.595C76.0712 16.1308 76.3113 16.7046 76.5 17.3165Z" fill="white"/>
        <path d="M81.6147 35.1556C81.0624 35.1556 80.6147 34.7079 80.6147 34.1556V11.8325C80.6147 11.2803 81.0624 10.8325 81.6147 10.8325H96.029C96.5813 10.8325 97.029 11.2803 97.029 11.8325V14.0724C97.029 14.6247 96.5813 15.0724 96.029 15.0724H86.765C86.2127 15.0724 85.765 15.5202 85.765 16.0724V19.8682C85.765 20.4205 86.2127 20.8682 86.765 20.8682H95.1845C95.7368 20.8682 96.1845 21.3159 96.1845 21.8682V24.1081C96.1845 24.6604 95.7368 25.1081 95.1845 25.1081H86.765C86.2127 25.1081 85.765 25.5558 85.765 26.1081V29.9157C85.765 30.468 86.2127 30.9157 86.765 30.9157H96.0766C96.6289 30.9157 97.0766 31.3634 97.0766 31.9157V34.1556C97.0766 34.7079 96.6289 35.1556 96.0766 35.1556H81.6147Z" fill="white"/>
        <path d="M115.244 17.8278C114.73 17.8278 114.319 17.4284 114.141 16.9464C113.938 16.4003 113.596 15.9498 113.113 15.595C112.392 15.0645 111.412 14.7993 110.175 14.7993C109.335 14.7993 108.625 14.9181 108.046 15.1556C107.467 15.3852 107.023 15.7059 106.714 16.1176C106.413 16.5293 106.262 16.9964 106.262 17.519C106.246 17.9545 106.337 18.3345 106.536 18.6591C106.742 18.9838 107.023 19.2648 107.38 19.5024C107.737 19.732 108.149 19.9339 108.617 20.1081C109.085 20.2743 109.585 20.4169 110.116 20.5356L112.304 21.0582C113.367 21.2957 114.342 21.6124 115.23 22.0083C116.119 22.4042 116.888 22.8911 117.538 23.4691C118.188 24.0471 118.692 24.728 119.049 25.5119C119.413 26.2957 119.6 27.1944 119.608 28.2078C119.6 29.6964 119.219 30.9869 118.466 32.0796C117.72 33.1643 116.642 34.0075 115.23 34.6093C113.827 35.2031 112.134 35.5 110.152 35.5C108.185 35.5 106.472 35.1991 105.013 34.5974C103.562 33.9956 102.428 33.1049 101.611 31.9252C100.965 30.9761 100.564 29.8474 100.409 28.5393C100.343 27.982 100.8 27.519 101.362 27.519H104.388C104.914 27.519 105.334 27.9326 105.476 28.4388C105.595 28.8612 105.778 29.2355 106.024 29.5618C106.444 30.1002 107.003 30.5079 107.701 30.785C108.407 31.0542 109.204 31.1888 110.092 31.1888C110.964 31.1888 111.722 31.0622 112.364 30.8088C113.014 30.5554 113.518 30.2031 113.874 29.7518C114.231 29.3005 114.41 28.7819 114.41 28.196C114.41 27.6496 114.247 27.1904 113.922 26.8183C113.605 26.4462 113.137 26.1295 112.519 25.8682C111.908 25.6069 111.159 25.3694 110.27 25.1556L107.618 24.4905C105.564 23.9917 103.943 23.2118 102.753 22.1508C101.564 21.0899 100.973 19.6607 100.981 17.8634C100.973 16.3907 101.366 15.1041 102.158 14.0036C102.959 12.903 104.058 12.0439 105.453 11.4264C106.849 10.8088 108.435 10.5 110.211 10.5C112.019 10.5 113.597 10.8088 114.945 11.4264C116.301 12.0439 117.356 12.903 118.109 14.0036C118.681 14.8401 119.043 15.7772 119.194 16.815C119.275 17.3679 118.817 17.8278 118.258 17.8278H115.244Z" fill="white"/>
        <path d="M125.938 35.4644C125.153 35.4644 124.479 35.1873 123.916 34.633C123.361 34.0709 123.084 33.3979 123.084 32.614C123.084 31.8381 123.361 31.173 123.916 30.6188C124.479 30.0645 125.153 29.7874 125.938 29.7874C126.7 29.7874 127.366 30.0645 127.937 30.6188C128.508 31.173 128.793 31.8381 128.793 32.614C128.793 33.1366 128.658 33.6156 128.389 34.0511C128.127 34.4786 127.782 34.823 127.354 35.0843C126.926 35.3377 126.454 35.4644 125.938 35.4644Z" fill="white"/>
        <path d="M137.472 34.4654C137.338 34.877 136.954 35.1556 136.521 35.1556H133.132C132.445 35.1556 131.962 34.4783 132.187 33.8288L139.905 11.5058C140.044 11.1028 140.423 10.8325 140.85 10.8325H146.062C146.488 10.8325 146.868 11.103 147.007 11.5062L154.714 33.8292C154.938 34.4787 154.456 35.1556 153.769 35.1556H150.379C149.946 35.1556 149.562 34.8767 149.428 34.4648L143.581 16.4813C143.563 16.4273 143.513 16.3907 143.456 16.3907C143.399 16.3907 143.349 16.4272 143.331 16.4812L137.472 34.4654ZM136.902 26.595C136.902 26.0427 137.35 25.595 137.902 25.595H148.938C149.491 25.595 149.938 26.0427 149.938 26.595V28.6093C149.938 29.1615 149.491 29.6093 148.938 29.6093H137.902C137.35 29.6093 136.902 29.1615 136.902 28.6093V26.595Z" fill="white"/>
        <path d="M159.104 35.1556C158.552 35.1556 158.104 34.7079 158.104 34.1556V11.8325C158.104 11.2803 158.552 10.8325 159.104 10.8325H167.715C169.562 10.8325 171.136 11.1849 172.437 11.8895C173.737 12.5863 174.728 13.5562 175.41 14.7993C176.1 16.0344 176.445 17.4596 176.445 19.0748C176.445 20.69 176.096 22.1152 175.398 23.3504C174.701 24.5855 173.69 25.5475 172.365 26.2363C171.049 26.9252 169.455 27.2696 167.584 27.2696H162.458C161.906 27.2696 161.458 26.8219 161.458 26.2696V24.1485C161.458 23.5962 161.906 23.1485 162.458 23.1485H166.751C167.742 23.1485 168.559 22.9782 169.201 22.6378C169.852 22.2894 170.335 21.8104 170.653 21.2007C170.978 20.5831 171.14 19.8745 171.14 19.0748C171.14 18.2672 170.978 17.5625 170.653 16.9608C170.335 16.3511 169.852 15.88 169.201 15.5475C168.551 15.207 167.727 15.0368 166.727 15.0368H164.254C163.702 15.0368 163.254 15.4845 163.254 16.0368V34.1556C163.254 34.7079 162.807 35.1556 162.254 35.1556H159.104Z" fill="white"/>
        <path d="M180.79 35.1556C180.238 35.1556 179.79 34.7079 179.79 34.1556V11.8325C179.79 11.2803 180.238 10.8325 180.79 10.8325H189.401C191.241 10.8325 192.811 11.1611 194.111 11.8183C195.42 12.4675 196.415 13.3899 197.097 14.5855C197.787 15.7732 198.132 17.1706 198.132 18.7779C198.132 20.3931 197.783 21.7827 197.085 22.9466C196.387 24.1025 195.376 24.9893 194.052 25.6069C192.736 26.2245 191.142 26.5333 189.27 26.5333H183.835C183.283 26.5333 182.835 26.0855 182.835 25.5333V23.4002C182.835 22.848 183.283 22.4002 183.835 22.4002H188.438C189.421 22.4002 190.238 22.2656 190.888 21.9964C191.538 21.7272 192.022 21.3234 192.339 20.785C192.664 20.2466 192.827 19.5776 192.827 18.7779C192.827 17.9703 192.664 17.2894 192.339 16.7352C192.022 16.1809 191.534 15.7613 190.876 15.4762C190.226 15.1833 189.405 15.0368 188.414 15.0368H185.941C185.388 15.0368 184.941 15.4845 184.941 16.0368V34.1556C184.941 34.7079 184.493 35.1556 183.941 35.1556H180.79ZM192.353 24.0867C192.718 24.0867 193.055 24.2861 193.23 24.6068L198.191 33.6757C198.555 34.3421 198.073 35.1556 197.313 35.1556H193.914C193.545 35.1556 193.206 34.9526 193.032 34.6274L188.179 25.5585C187.822 24.8924 188.305 24.0867 189.06 24.0867H192.353Z" fill="white"/>
    </g>
    <defs>
        <clipPath id="clip0_1613_8936">
            <rect width="213" height="45" fill="white" transform="translate(0 0.5)"/>
        </clipPath>
    </defs>
</svg>